<svg xmlns="http://www.w3.org/2000/svg" viewBox="0 0 92 92"><defs><style>.cls-1{fill:#fff;}.cls-2{fill:#ea5b0c;fill-rule:evenodd;}</style></defs><g id="Capa_2" data-name="Capa 2"><g id="iconos-circulo"><circle class="cls-1" cx="46" cy="46" r="46"/><g id="slot-outline"><path class="cls-2" d="M60,37.62l0,0h0Z"/><path class="cls-2" d="M59.93,37.54l0,0Z"/><path class="cls-2" d="M62.81,34.65a3,3,0,0,0-1.47.29,3.3,3.3,0,0,0-.57.34,2.91,2.91,0,0,0-1.65-.6A3.22,3.22,0,0,0,56.31,36a4,4,0,0,0-.8,2.4,4.44,4.44,0,0,0,.72,2.54,9.57,9.57,0,0,0,1.29,1.57,19.9,19.9,0,0,0,2.58,2.13,1.23,1.23,0,0,0,1.5,0,18.93,18.93,0,0,0,2.28-1.92,10.28,10.28,0,0,0,1.4-1.64A4.53,4.53,0,0,0,66.06,39a4.27,4.27,0,0,0-.49-2.55A3.25,3.25,0,0,0,62.81,34.65Zm1.1,4.08a2.28,2.28,0,0,1-.42,1.1,7.78,7.78,0,0,1-1.11,1.3,17.24,17.24,0,0,1-1.55,1.35A17.29,17.29,0,0,1,59,40.94a7.38,7.38,0,0,1-1-1.2,2.28,2.28,0,0,1-.37-1.3A1.82,1.82,0,0,1,58,37.32a1.05,1.05,0,0,1,1-.45.93.93,0,0,1,.67.35l.11.15c.05.06.07.1.1.14l.06.07a1.07,1.07,0,0,0,1.73-.1l.07-.11v0a1.21,1.21,0,0,1,.48-.43.84.84,0,0,1,.45-.08,1.09,1.09,0,0,1,1,.64A2,2,0,0,1,63.91,38.73Z"/><path class="cls-2" d="M32.78,34.27H27.72a1.1,1.1,0,0,0,0,2.19h3.21c-.22.41-.42.84-.62,1.28a20,20,0,0,0-1.14,3,8.87,8.87,0,0,0-.41,3.55A1.08,1.08,0,1,0,30.9,44a6.87,6.87,0,0,1,.34-2.67,19.39,19.39,0,0,1,1-2.69c.32-.68.65-1.34,1-1.95.2-.36.36-.62.44-.76A1.1,1.1,0,0,0,32.78,34.27Z"/><path class="cls-2" d="M47.84,34.27H42.79a1.1,1.1,0,0,0,0,2.19H46c-.21.41-.42.84-.62,1.28a22.48,22.48,0,0,0-1.14,3,9.05,9.05,0,0,0-.41,3.55A1.08,1.08,0,1,0,46,44a7.28,7.28,0,0,1,.34-2.67,20.89,20.89,0,0,1,1-2.69c.31-.68.65-1.34,1-1.95l.44-.76A1.09,1.09,0,0,0,47.84,34.27Z"/><path class="cls-2" d="M36.1,63.39A3.55,3.55,0,1,0,39.6,67,3.54,3.54,0,0,0,36.1,63.39ZM36,68.3A1.36,1.36,0,1,1,37.44,67,1.37,1.37,0,0,1,36,68.3Z"/><path class="cls-2" d="M44.78,63.41a3.55,3.55,0,1,0,3.91,3.14A3.54,3.54,0,0,0,44.78,63.41Zm.54,4.88a1.38,1.38,0,0,1-1.54-1.2A1.36,1.36,0,0,1,45,65.59a1.36,1.36,0,1,1,.31,2.7Z"/><path class="cls-2" d="M54.33,63.39a3.55,3.55,0,1,0,3.5,3.6A3.54,3.54,0,0,0,54.33,63.39Zm-.07,4.91A1.36,1.36,0,1,1,55.67,67,1.37,1.37,0,0,1,54.26,68.3Z"/><path class="cls-2" d="M81.11,32.35a2.16,2.16,0,1,0-4.32-.06,2.2,2.2,0,0,0,.95,1.84v8.21a2,2,0,0,1-1.89,2.24,6,6,0,0,1-1.53,0V26.54a4,4,0,0,0-3.95-3.94h-.84A3.9,3.9,0,0,0,70,20.77V17.46A4,4,0,0,0,66,13.52H53.52a8.16,8.16,0,0,0-16.23,0H24.77a4,4,0,0,0-3.95,3.94v3.31a3.91,3.91,0,0,0,.46,1.83h-.85a4,4,0,0,0-3.94,3.94V52.05A4,4,0,0,0,20.43,56h.95a3.91,3.91,0,0,0-.56,2V74.26a4,4,0,0,0,3.95,3.94H66A4,4,0,0,0,70,74.26V58a3.82,3.82,0,0,0-.56-2h1a4,4,0,0,0,3.95-3.94V46.81a8,8,0,0,0,1.89-.07,4.1,4.1,0,0,0,3.69-4.4V34.28A2.19,2.19,0,0,0,81.11,32.35ZM45.4,8.39a6,6,0,0,1,6,5.13H39.46A6,6,0,0,1,45.4,8.39ZM23,17.46a1.77,1.77,0,0,1,1.79-1.75H66a1.77,1.77,0,0,1,1.78,1.75v3.31A1.78,1.78,0,0,1,66,22.53H24.77A1.78,1.78,0,0,1,23,20.77Zm44.84,56.8A1.78,1.78,0,0,1,66,76H24.77A1.78,1.78,0,0,1,23,74.26V58a1.78,1.78,0,0,1,1.79-1.76H66A1.78,1.78,0,0,1,67.82,58Zm4.34-22.21a1.77,1.77,0,0,1-1.79,1.75H20.43a1.77,1.77,0,0,1-1.78-1.75V26.54a1.78,1.78,0,0,1,1.78-1.75H70.37a1.78,1.78,0,0,1,1.79,1.75Z"/></g></g></g></svg>