<svg width="32" height="32" viewBox="0 0 32 32" fill="none" xmlns="http://www.w3.org/2000/svg">
<path d="M16.0292 32C15.3903 32 14.7503 31.9686 14.1115 31.8718C5.38373 30.8492 -0.913922 22.8912 0.108914 14.1342H0.108983C0.62047 9.88396 2.7303 6.08075 6.08698 3.46012C9.44366 0.807436 13.6318 -0.375145 17.8836 0.10432C22.1352 0.615627 25.9395 2.72495 28.5605 6.08075C31.1828 9.43654 32.397 13.6235 31.885 17.8743C31.3742 22.1248 29.264 25.928 25.9072 28.5484C23.0624 30.8183 19.6099 32 16.0294 32H16.0292Z" fill="#E2001A"/>
<path d="M6.27892 11.8332H8.64447V15.1891H12.0013V17.5547H8.67653V20.9106H6.27892V17.5859H2.92224V15.2214H6.27892V11.8332Z" fill="white"/>
<path d="M13.9836 10.8108H11.6173V9.18084C12.9607 8.50966 14.175 7.77461 15.1978 6.91171H16.7326V24.6493H14.0147V10.8106L13.9836 10.8108Z" fill="white"/>
<path d="M20.2174 15.3493C19.1623 14.5815 18.6503 13.2073 18.6503 11.8654C18.6503 8.47772 20.2174 6.94363 22.6782 6.94363C25.1402 6.94363 26.7061 8.47772 26.7061 11.8654C26.7061 13.2073 26.1953 14.5815 25.1402 15.3493C26.6104 16.3085 26.9621 17.7138 26.9621 19.8235C26.9621 23.1148 25.4919 24.9052 22.6782 24.9052C19.8657 24.9052 18.3943 23.1148 18.3943 19.8235C18.3943 17.6827 18.746 16.2762 20.2174 15.3493ZM24.213 19.6321C24.213 17.8095 23.829 16.7235 22.6471 16.7235C21.4639 16.7235 21.08 17.8095 21.08 19.6321C21.08 21.4536 21.4639 22.5396 22.6471 22.5396C23.829 22.5396 24.213 21.4536 24.213 19.6321ZM23.9893 11.7052C23.9893 10.0118 23.6053 9.30868 22.6782 9.30868C21.7511 9.30868 21.3682 10.0118 21.3682 11.7052C21.3682 13.3999 21.7511 14.1031 22.6782 14.1031C23.6053 14.1031 23.9893 13.3999 23.9893 11.7052Z" fill="white"/>
</svg>
