<svg width="120" height="32" viewBox="0 0 120 32" fill="none" xmlns="http://www.w3.org/2000/svg">
<path d="M15.3132 29.5773L8.70363 30.0987C2.93658 27.1348 -0.686791 20.827 0.109267 14.0598C0.622222 9.8259 2.73835 6.03741 6.10497 3.42701C9.50362 0.78468 13.7045 -0.393286 17.9365 0.116117C22.2007 0.625486 26.0162 2.72664 28.6451 6.06934C31.2751 9.41204 32.4929 13.5821 31.9794 17.8157C31.4671 22.0496 29.3506 25.8391 25.9838 28.4493C24.0489 29.9996 21.811 31.0411 19.4377 31.5418L15.3135 29.577L15.3132 29.5773Z" fill="#E2001A"/>
<path d="M8.57382 30.0734L9.31124 29.5636C9.34327 29.5636 11.2671 28.2269 11.6203 26.7616C11.3953 26.5388 6.65 21.1589 5.94462 20.4905C5.5278 20.1081 4.98271 19.7269 4.50182 19.4088C3.66817 18.8668 3.05901 18.4534 2.99483 17.9125C2.96279 17.6886 3.02686 17.4348 3.18716 17.243C3.37961 17.0203 5.14301 15.2059 9.24705 18.2306C9.95255 18.7715 10.4014 19.0586 10.6258 19.217C10.69 19.217 10.722 19.217 10.7861 19.2492C12.1974 18.5808 12.0043 18.0078 11.4274 16.066C11.3312 15.8111 9.56776 9.92133 9.02268 8.17046C8.76615 7.40636 8.89441 6.67418 9.34327 6.1967C9.7601 5.75091 10.3693 5.55994 10.9465 5.7191C11.6515 5.87826 12.2286 6.45128 12.4854 7.27901C12.6774 7.91576 14.8587 13.7739 14.8587 13.7739C15.0183 13.8049 15.371 13.7739 15.563 13.7417V4.89138C15.563 3.74534 16.59 3.10858 17.5511 3.10858C18.0322 3.10858 18.4486 3.26786 18.8014 3.52244C19.0581 3.74534 19.3785 4.1592 19.3785 4.85957V13.6774V13.9324C19.5716 13.9967 19.8596 14.0598 20.0527 14.092C20.0527 14.0598 20.1164 13.8692 20.1487 13.8371C20.1487 13.8371 21.8153 8.29781 22.2329 6.70598C22.3925 6.10115 22.906 5.62356 23.5791 5.43259C24.2846 5.24162 24.9901 5.40078 25.4388 5.84645C25.6632 6.06934 26.0159 6.57863 25.7916 7.47009C25.3104 9.18915 23.7711 14.9199 23.7711 14.9199C23.7711 14.9509 23.6751 15.3655 23.6751 15.4287C23.8035 15.493 23.9642 15.5561 24.1238 15.5883C24.1562 15.5561 26.7538 11.7356 26.9458 11.5128C27.3946 10.94 28.4204 10.7809 29.0623 11.1947C29.2867 11.3543 29.9922 11.9584 29.3191 13.2319C28.8692 14.0277 25.824 18.6762 25.6308 19.1217C25.3752 19.79 23.9642 24.8519 23.8035 25.3928C23.4195 26.7616 22.4572 27.3989 21.687 27.9077C21.303 28.1626 20.9826 28.3854 20.7895 28.6081C20.5015 28.9905 19.3149 31.6007 19.3149 31.6007C17.5511 32.0601 14.0629 32.6354 8.57382 30.0734Z" fill="white"/>
<path d="M39.6426 18.0137H36.3379L35.6465 20H34.1055L37.3281 11.4688H38.6582L41.8867 20H40.3398L39.6426 18.0137ZM36.7539 16.8184H39.2266L37.9902 13.2793L36.7539 16.8184ZM46.4922 19.3789C46.0742 19.8711 45.4805 20.1172 44.7109 20.1172C44.0234 20.1172 43.502 19.916 43.1465 19.5137C42.7949 19.1113 42.6191 18.5293 42.6191 17.7676V13.6602H44.043V17.75C44.043 18.5547 44.377 18.957 45.0449 18.957C45.7363 18.957 46.2031 18.709 46.4453 18.2129V13.6602H47.8691V20H46.5273L46.4922 19.3789ZM51.1035 12.1191V13.6602H52.2227V14.7148H51.1035V18.2539C51.1035 18.4961 51.1504 18.6719 51.2441 18.7812C51.3418 18.8867 51.5137 18.9395 51.7598 18.9395C51.9238 18.9395 52.0898 18.9199 52.2578 18.8809V19.9824C51.9336 20.0723 51.6211 20.1172 51.3203 20.1172C50.2266 20.1172 49.6797 19.5137 49.6797 18.3066V14.7148H48.6367V13.6602H49.6797V12.1191H51.1035ZM52.873 16.7715C52.873 16.1504 52.9961 15.5918 53.2422 15.0957C53.4883 14.5957 53.834 14.2129 54.2793 13.9473C54.7246 13.6777 55.2363 13.543 55.8145 13.543C56.6699 13.543 57.3633 13.8184 57.8945 14.3691C58.4297 14.9199 58.7188 15.6504 58.7617 16.5605L58.7676 16.8945C58.7676 17.5195 58.6465 18.0781 58.4043 18.5703C58.166 19.0625 57.8223 19.4434 57.373 19.7129C56.9277 19.9824 56.4121 20.1172 55.8262 20.1172C54.9316 20.1172 54.2148 19.8203 53.6758 19.2266C53.1406 18.6289 52.873 17.834 52.873 16.8418V16.7715ZM54.2969 16.8945C54.2969 17.5469 54.4316 18.0586 54.7012 18.4297C54.9707 18.7969 55.3457 18.9805 55.8262 18.9805C56.3066 18.9805 56.6797 18.793 56.9453 18.418C57.2148 18.043 57.3496 17.4941 57.3496 16.7715C57.3496 16.1309 57.2109 15.623 56.9336 15.248C56.6602 14.873 56.2871 14.6855 55.8145 14.6855C55.3496 14.6855 54.9805 14.8711 54.707 15.2422C54.4336 15.6094 54.2969 16.1602 54.2969 16.8945ZM61.5918 16.8301V20H60.1094V11.4688H63.373C64.3262 11.4688 65.082 11.7168 65.6406 12.2129C66.2031 12.709 66.4844 13.3652 66.4844 14.1816C66.4844 15.0176 66.209 15.668 65.6582 16.1328C65.1113 16.5977 64.3438 16.8301 63.3555 16.8301H61.5918ZM61.5918 15.6406H63.373C63.9004 15.6406 64.3027 15.5176 64.5801 15.2715C64.8574 15.0215 64.9961 14.6621 64.9961 14.1934C64.9961 13.7324 64.8555 13.3652 64.5742 13.0918C64.293 12.8145 63.9062 12.6719 63.4141 12.6641H61.5918V15.6406ZM70.9668 14.9609C70.7793 14.9297 70.5859 14.9141 70.3867 14.9141C69.7344 14.9141 69.2949 15.1641 69.0684 15.6641V20H67.6445V13.6602H69.0039L69.0391 14.3691C69.3828 13.8184 69.8594 13.543 70.4688 13.543C70.6719 13.543 70.8398 13.5703 70.9727 13.625L70.9668 14.9609ZM71.3887 16.7715C71.3887 16.1504 71.5117 15.5918 71.7578 15.0957C72.0039 14.5957 72.3496 14.2129 72.7949 13.9473C73.2402 13.6777 73.752 13.543 74.3301 13.543C75.1855 13.543 75.8789 13.8184 76.4102 14.3691C76.9453 14.9199 77.2344 15.6504 77.2773 16.5605L77.2832 16.8945C77.2832 17.5195 77.1621 18.0781 76.9199 18.5703C76.6816 19.0625 76.3379 19.4434 75.8887 19.7129C75.4434 19.9824 74.9277 20.1172 74.3418 20.1172C73.4473 20.1172 72.7305 19.8203 72.1914 19.2266C71.6562 18.6289 71.3887 17.834 71.3887 16.8418V16.7715ZM72.8125 16.8945C72.8125 17.5469 72.9473 18.0586 73.2168 18.4297C73.4863 18.7969 73.8613 18.9805 74.3418 18.9805C74.8223 18.9805 75.1953 18.793 75.4609 18.418C75.7305 18.043 75.8652 17.4941 75.8652 16.7715C75.8652 16.1309 75.7266 15.623 75.4492 15.248C75.1758 14.873 74.8027 14.6855 74.3301 14.6855C73.8652 14.6855 73.4961 14.8711 73.2227 15.2422C72.9492 15.6094 72.8125 16.1602 72.8125 16.8945ZM79.8906 14.3516C80.3555 13.8125 80.9434 13.543 81.6543 13.543C83.0059 13.543 83.6914 14.3145 83.7109 15.8574V20H82.2871V15.9102C82.2871 15.4727 82.1914 15.1641 82 14.9844C81.8125 14.8008 81.5352 14.709 81.168 14.709C80.5977 14.709 80.1719 14.9629 79.8906 15.4707V20H78.4668V11H79.8906V14.3516ZM86.6699 20H85.2461V13.6602H86.6699V20ZM85.1582 12.0137C85.1582 11.7949 85.2266 11.6133 85.3633 11.4688C85.5039 11.3242 85.7031 11.252 85.9609 11.252C86.2188 11.252 86.418 11.3242 86.5586 11.4688C86.6992 11.6133 86.7695 11.7949 86.7695 12.0137C86.7695 12.2285 86.6992 12.4082 86.5586 12.5527C86.418 12.6934 86.2188 12.7637 85.9609 12.7637C85.7031 12.7637 85.5039 12.6934 85.3633 12.5527C85.2266 12.4082 85.1582 12.2285 85.1582 12.0137ZM93.7891 16.8945C93.7891 17.8789 93.5684 18.6621 93.127 19.2441C92.6895 19.8262 92.0859 20.1172 91.3164 20.1172C90.5742 20.1172 89.9961 19.8496 89.582 19.3145L89.5117 20H88.2227V11H89.6465V14.2695C90.0566 13.7852 90.6094 13.543 91.3047 13.543C92.0781 13.543 92.6855 13.8301 93.127 14.4043C93.5684 14.9785 93.7891 15.7812 93.7891 16.8125V16.8945ZM92.3652 16.7715C92.3652 16.084 92.2441 15.5684 92.002 15.2246C91.7598 14.8809 91.4082 14.709 90.9473 14.709C90.3301 14.709 89.8965 14.9785 89.6465 15.5176V18.1309C89.9004 18.6816 90.3379 18.957 90.959 18.957C91.4043 18.957 91.748 18.791 91.9902 18.459C92.2324 18.127 92.3574 17.625 92.3652 16.9531V16.7715ZM96.502 20H95.0781V13.6602H96.502V20ZM94.9902 12.0137C94.9902 11.7949 95.0586 11.6133 95.1953 11.4688C95.3359 11.3242 95.5352 11.252 95.793 11.252C96.0508 11.252 96.25 11.3242 96.3906 11.4688C96.5312 11.6133 96.6016 11.7949 96.6016 12.0137C96.6016 12.2285 96.5312 12.4082 96.3906 12.5527C96.25 12.6934 96.0508 12.7637 95.793 12.7637C95.5352 12.7637 95.3359 12.6934 95.1953 12.5527C95.0586 12.4082 94.9902 12.2285 94.9902 12.0137ZM100.662 18.9805C101.018 18.9805 101.312 18.877 101.547 18.6699C101.781 18.4629 101.906 18.207 101.922 17.9023H103.264C103.248 18.2969 103.125 18.666 102.895 19.0098C102.664 19.3496 102.352 19.6191 101.957 19.8184C101.562 20.0176 101.137 20.1172 100.68 20.1172C99.793 20.1172 99.0898 19.8301 98.5703 19.2559C98.0508 18.6816 97.791 17.8887 97.791 16.877V16.7305C97.791 15.7656 98.0488 14.9941 98.5645 14.416C99.0801 13.834 99.7832 13.543 100.674 13.543C101.428 13.543 102.041 13.7637 102.514 14.2051C102.99 14.6426 103.24 15.2188 103.264 15.9336H101.922C101.906 15.5703 101.781 15.2715 101.547 15.0371C101.316 14.8027 101.021 14.6855 100.662 14.6855C100.201 14.6855 99.8457 14.8535 99.5957 15.1895C99.3457 15.5215 99.2188 16.0273 99.2148 16.707V16.9355C99.2148 17.623 99.3379 18.1367 99.584 18.4766C99.834 18.8125 100.193 18.9805 100.662 18.9805ZM105.854 20H104.43V13.6602H105.854V20ZM104.342 12.0137C104.342 11.7949 104.41 11.6133 104.547 11.4688C104.688 11.3242 104.887 11.252 105.145 11.252C105.402 11.252 105.602 11.3242 105.742 11.4688C105.883 11.6133 105.953 11.7949 105.953 12.0137C105.953 12.2285 105.883 12.4082 105.742 12.5527C105.602 12.6934 105.402 12.7637 105.145 12.7637C104.887 12.7637 104.688 12.6934 104.547 12.5527C104.41 12.4082 104.342 12.2285 104.342 12.0137ZM107.143 16.7715C107.143 16.1504 107.266 15.5918 107.512 15.0957C107.758 14.5957 108.104 14.2129 108.549 13.9473C108.994 13.6777 109.506 13.543 110.084 13.543C110.939 13.543 111.633 13.8184 112.164 14.3691C112.699 14.9199 112.988 15.6504 113.031 16.5605L113.037 16.8945C113.037 17.5195 112.916 18.0781 112.674 18.5703C112.436 19.0625 112.092 19.4434 111.643 19.7129C111.197 19.9824 110.682 20.1172 110.096 20.1172C109.201 20.1172 108.484 19.8203 107.945 19.2266C107.41 18.6289 107.143 17.834 107.143 16.8418V16.7715ZM108.566 16.8945C108.566 17.5469 108.701 18.0586 108.971 18.4297C109.24 18.7969 109.615 18.9805 110.096 18.9805C110.576 18.9805 110.949 18.793 111.215 18.418C111.484 18.043 111.619 17.4941 111.619 16.7715C111.619 16.1309 111.48 15.623 111.203 15.248C110.93 14.873 110.557 14.6855 110.084 14.6855C109.619 14.6855 109.25 14.8711 108.977 15.2422C108.703 15.6094 108.566 16.1602 108.566 16.8945ZM110.477 11H112.1L110.477 12.7754H109.334L110.477 11ZM115.562 13.6602L115.604 14.3926C116.072 13.8262 116.688 13.543 117.449 13.543C118.77 13.543 119.441 14.2988 119.465 15.8105V20H118.041V15.8926C118.041 15.4902 117.953 15.1934 117.777 15.002C117.605 14.8066 117.322 14.709 116.928 14.709C116.354 14.709 115.926 14.9688 115.645 15.4883V20H114.221V13.6602H115.562Z" fill="white"/>
</svg>
