<svg xmlns="http://www.w3.org/2000/svg" viewBox="0 0 92 92"><defs><style>.cls-1{fill:#fff;}.cls-2{fill:#ea5b0c;}</style></defs><g id="Capa_2" data-name="Capa 2"><g id="iconos-circulo"><circle class="cls-1" cx="46" cy="46" r="46"/><path id="sports-outline" class="cls-2" d="M80.89,54.85v0a36,36,0,0,0-2-23.58l0-.1A36.13,36.13,0,0,0,65.72,15.84l-.06,0A35.75,35.75,0,0,0,46,10h0a36,36,0,0,0-35,27.83.3.3,0,0,0,0,.1A36,36,0,0,0,51.71,81.5h0A36,36,0,0,0,80.89,54.85ZM25.34,19.21a33.62,33.62,0,0,1,20.24-7l7.75,7.23L51,26.93a1.12,1.12,0,0,0-.4.54l-18.79,7-8.06-4.53,1.61-10.69Zm29.57-1.34-6-5.59a33.54,33.54,0,0,1,13.26,4Zm-21,37L32.83,36.4l18.58-6.9L60.7,43.1,50.1,59ZM62.61,44.19H72.82l5.85,10.5A33.83,33.83,0,0,1,70.7,69l-12.14,2-6.68-10.8Zm-4,29.1,9.26-1.56a33.68,33.68,0,0,1-13.55,7ZM79.36,51.43,74.67,43l3.2-8.35a33.75,33.75,0,0,1,1.49,16.77ZM76.65,31.7,72.71,42H62.6L53,27.9,55.44,20l9.45-2.09A33.86,33.86,0,0,1,76.65,31.7ZM22.8,21.37l-1.27,8.52-7.62,5.44A33.86,33.86,0,0,1,22.8,21.37ZM13,38.67l9.62-6.87,8,4.52,1.08,18.94-8.83,8.83-7.42-3.6A33.76,33.76,0,0,1,13,38.67Zm4.3,25.14,5.05,2.44,4.43,7.51A33.94,33.94,0,0,1,17.29,63.81ZM30.69,76.1l-6.2-10.51,8.68-8.69,16.71,4.31,6.8,11L51,79.4a34.55,34.55,0,0,1-5,.37A33.67,33.67,0,0,1,30.69,76.1Z"/></g></g></svg>