<svg xmlns="http://www.w3.org/2000/svg" width="150" height="150" viewBox="0 0 150 150">
  <g id="iconos-circulo">
    <g>
      <path d="M136.7,86.57a11.41,11.41,0,0,0-3.35-8.09,12.79,12.79,0,0,0,3.29-9.82C136,62.13,130.15,57,123.23,57H91.47c1.58-4.78,4.1-13.54,4.1-20.57,0-11.15-9.48-20.57-15.43-20.57A16,16,0,0,0,70.83,19a2.53,2.53,0,0,0-1,2V38.45L55.05,70.53l-.62.31v-1a2.57,2.57,0,0,0-2.57-2.57H26.16A12.87,12.87,0,0,0,13.3,80.14v41.13a12.88,12.88,0,0,0,12.86,12.86H41.58a12.89,12.89,0,0,0,12.1-8.5A33.49,33.49,0,0,0,67.29,129h47.19a11.82,11.82,0,0,0,11.65-9,11.62,11.62,0,0,0-.92-7.73A11.52,11.52,0,0,0,131.55,102a11.35,11.35,0,0,0-1.2-5.13A11.53,11.53,0,0,0,136.7,86.57Zm-10.85,6.34a2.57,2.57,0,0,0-1.47,4.43,6.32,6.32,0,0,1,2,4.65,6.41,6.41,0,0,1-5.69,6.35,2.56,2.56,0,0,0-1.47,4.42,6.37,6.37,0,0,1,1.86,6.14,6.65,6.65,0,0,1-6.63,4.94H67.29c-4.18,0-11.18-2-13.61-4.39a2.59,2.59,0,0,0-2.8-.55,2.56,2.56,0,0,0-1.59,2.37A7.72,7.72,0,0,1,41.58,129H26.16a7.72,7.72,0,0,1-7.71-7.71V80.14a7.72,7.72,0,0,1,7.71-7.71H49.29V75a2.58,2.58,0,0,0,1.23,2.19,2.64,2.64,0,0,0,2.5.11l5.14-2.57a2.59,2.59,0,0,0,1.18-1.22L74.76,40.09A2.54,2.54,0,0,0,75,39V22.41A10.87,10.87,0,0,1,80.14,21C83,21,90.42,28,90.42,36.44c0,9.05-4.92,22.09-5,22.22a2.58,2.58,0,0,0,2.4,3.49h35.38c4.29,0,7.93,3.07,8.29,7a7.7,7.7,0,0,1-3.66,7.28,2.55,2.55,0,0,0-1.22,2.29A2.59,2.59,0,0,0,128,80.89a6.36,6.36,0,0,1-2.18,12Z"/>
      <path d="M51.86,72.43A2.57,2.57,0,0,0,49.29,75v46.27a2.57,2.57,0,1,0,5.14,0V75A2.57,2.57,0,0,0,51.86,72.43Z"/>
    </g>
  </g>
</svg>
