<svg width="100" height="32" viewBox="0 0 100 32" fill="none" xmlns="http://www.w3.org/2000/svg">
<path d="M0 27.1807H0.360143C1.64019 27.1807 2.51404 26.9308 2.98209 26.4326C3.4503 25.9336 3.68416 24.8549 3.68416 23.1958V11.7434L5.08815 11.5757V23.1958C5.08815 25.1822 4.7599 26.5519 4.10405 27.3057C3.44803 28.0594 2.29985 28.4367 0.65998 28.4367H0.420135L0 27.1807Z" fill="white"/>
<path d="M15.5797 22.035C15.0681 22.7847 14.4804 23.345 13.8158 23.7158C13.152 24.0867 12.4081 24.2729 11.584 24.2729C10.2241 24.2729 9.16604 23.8601 8.40998 23.0338C7.65383 22.2083 7.27588 21.0498 7.27588 19.5576V11.7434L8.65606 11.5757V18.8756C8.65606 20.2952 8.92563 21.357 9.46556 22.0591C10.0055 22.7605 10.8158 23.112 11.8957 23.112C12.8873 23.112 13.7502 22.7468 14.482 22.0172C15.2138 21.2868 15.5797 20.4033 15.5797 19.3657V11.7434L16.9598 11.5757V23.9496L15.5797 24.1173V22.035Z" fill="white"/>
<path d="M26.3547 19.7374C27.2662 20.1437 27.9745 20.708 28.4788 21.4303C28.9823 22.1527 29.2349 22.9685 29.2349 23.8779C29.2349 25.2097 28.7047 26.327 27.6443 27.2283C26.5846 28.1296 25.2546 28.581 23.6543 28.581C22.5105 28.581 21.4638 28.3215 20.5159 27.8023C19.5679 27.2839 18.7706 26.5382 18.1222 25.5652L19.3704 24.763C19.8901 25.5692 20.5142 26.1811 21.242 26.6003C21.9705 27.0187 22.7743 27.2283 23.6543 27.2283C24.8062 27.2283 25.7865 26.9034 26.5943 26.2528C27.4022 25.6023 27.8062 24.8114 27.8062 23.8779C27.8062 22.8887 27.4022 22.0487 26.5943 21.3586C25.7865 20.6685 24.8062 20.3235 23.6543 20.3235C23.1823 20.3235 22.6885 20.3872 22.1721 20.5145C21.6564 20.6427 21.11 20.8378 20.5345 21.1014L21.1222 19.5576C20.3782 19.1352 19.8059 18.6023 19.406 17.9598C19.0062 17.3181 18.8062 16.6103 18.8062 15.8363C18.8062 14.6077 19.2879 13.5742 20.252 12.7366C21.2161 11.899 22.406 11.4798 23.8226 11.4798C24.0299 11.4798 24.2622 11.4887 24.518 11.504C24.7746 11.5201 25.0425 11.5443 25.3226 11.5758C25.3866 11.5838 25.4505 11.5903 25.5145 11.5935C25.5784 11.5983 25.678 11.5999 25.8148 11.5999C26.2544 11.5999 26.7506 11.554 27.3027 11.4621C27.8547 11.371 28.6108 11.2049 29.5709 10.9655L29.2584 11.9111C29.1702 12.1739 29.0625 12.3521 28.9346 12.444C28.8067 12.5351 28.6262 12.581 28.3947 12.581C28.2587 12.581 27.8903 12.5375 27.2905 12.4496C27.1626 12.4335 27.0663 12.4214 27.0023 12.4134C27.6742 12.7963 28.1842 13.2768 28.5331 13.8556C28.8804 14.4336 29.0544 15.0939 29.0544 15.8363C29.0544 16.6901 28.8205 17.4535 28.3526 18.1275C27.8847 18.8022 27.2185 19.3383 26.3547 19.7374ZM20.2342 15.8363C20.2342 16.7376 20.5887 17.4979 21.2962 18.1154C22.0045 18.7337 22.8861 19.0433 23.9424 19.0433C24.998 19.0433 25.8763 18.7361 26.5765 18.1218C27.2767 17.5075 27.6264 16.7457 27.6264 15.8363C27.6264 14.9907 27.2703 14.2684 26.5587 13.6702C25.8464 13.072 24.9745 12.7729 23.9424 12.7729C22.9103 12.7729 22.0345 13.0696 21.314 13.6637C20.5944 14.2587 20.2342 14.9826 20.2342 15.8363Z" fill="white"/>
<path d="M36.9494 23.8658C36.3973 24.1213 35.7975 24.2487 35.1491 24.2487C33.9008 24.2487 32.8388 23.8118 31.9629 22.9379C31.087 22.0648 30.6491 21.0055 30.6491 19.7608C30.6491 18.5249 31.0887 17.468 31.9686 16.5901C32.8493 15.7122 33.9089 15.2736 35.1491 15.2736C35.7732 15.2736 36.369 15.3954 36.9373 15.6388C37.5047 15.8823 38.005 16.2354 38.4372 16.6973V15.1535C38.4372 14.3087 38.2227 13.6839 37.7953 13.2816C37.3671 12.8785 36.7049 12.677 35.8088 12.677C35.281 12.677 34.7087 12.7528 34.0927 12.9043C33.4767 13.0559 32.7732 13.2993 31.9807 13.6339L32.5207 12.0425C33.1205 11.8353 33.709 11.6798 34.2854 11.5758C34.8609 11.4726 35.417 11.4202 35.9529 11.4202C37.2894 11.4202 38.2672 11.7313 38.8873 12.3537C39.5074 12.9761 39.8174 13.9572 39.8174 15.2978V23.9496L38.4372 24.2487V22.7291C37.9969 23.2313 37.5015 23.6102 36.9494 23.8658ZM32.0771 19.7608C32.0771 20.6629 32.383 21.4142 32.995 22.0172C33.607 22.6194 34.3809 22.9201 35.3166 22.9201C36.2532 22.9201 37.0069 22.6291 37.5792 22.0471C38.1507 21.4642 38.4372 20.7024 38.4372 19.7608C38.4372 18.828 38.1507 18.0678 37.5792 17.4817C37.0069 16.8948 36.2613 16.6022 35.3409 16.6022C34.389 16.6022 33.607 16.9013 32.995 17.4995C32.383 18.0976 32.0771 18.8514 32.0771 19.7608Z" fill="white"/>
<path d="M42.3236 24.1173V11.7434L43.6917 11.5758V14.2208C44.1871 13.2631 44.7934 12.5456 45.5098 12.0667C46.2254 11.5879 47.0551 11.3484 47.9998 11.3484H48.3357L47.7715 12.7012C46.3792 12.8366 45.3511 13.4428 44.6873 14.5199C44.0227 15.5969 43.6917 17.2044 43.6917 19.3424V23.9496L42.3236 24.1173Z" fill="white"/>
<path d="M50.0033 24.2076V11.3194H56.0057C57.1584 11.3194 58.0739 11.6201 58.7531 12.2223C59.4323 12.8237 59.7714 13.6355 59.7714 14.6569C59.7714 15.2736 59.6322 15.8106 59.3529 16.2668C59.0745 16.7239 58.6406 17.1302 58.0529 17.4866C58.7321 17.7897 59.2396 18.1976 59.5755 18.7111C59.9123 19.2255 60.0807 19.8446 60.0807 20.571C60.0807 21.6585 59.7034 22.5372 58.9482 23.2055C58.1937 23.873 57.1884 24.2076 55.9336 24.2076H50.0033ZM54.0143 18.7837V21.2143H54.7421C55.1241 21.2143 55.4212 21.1103 55.6333 20.9015C55.8454 20.6927 55.9514 20.3952 55.9514 20.0083C55.9514 19.6269 55.8438 19.3279 55.6285 19.1102C55.4131 18.8925 55.1177 18.7837 54.7421 18.7837H54.0143ZM54.0321 14.2127V16.3716H54.6603C54.9938 16.3716 55.2634 16.2717 55.4698 16.0718C55.6754 15.8726 55.779 15.6122 55.779 15.2922C55.779 14.96 55.6803 14.6964 55.4836 14.503C55.286 14.3095 55.0116 14.2127 54.6603 14.2127H54.0321Z" fill="white"/>
<path d="M61.3637 24.4527V11.5008L65.4565 11.2202V24.0988L61.3637 24.4527Z" fill="white"/>
<path d="M67.2673 24.2076V11.3194H74.4435L75.2068 14.7569H71.369V15.9452H73.8064V19.2827H71.369V20.571H75.4529L74.6523 24.2076H67.2673Z" fill="white"/>
<path d="M84.4416 17.3471V17.3511L84.4335 17.3447C82.5311 15.8759 81.1631 13.7564 80.6717 11.3194H76.7255V24.4156L80.6823 24.135V18.0041L84.4416 24.2076H88.3919V19.2166C86.9348 18.8821 85.591 18.2347 84.4416 17.3471Z" fill="white"/>
<path d="M100 9.28705C100 14.4167 95.8311 18.5741 90.6909 18.5741C85.5425 18.5741 81.3736 14.4167 81.3736 9.28705C81.3736 4.15805 85.5425 0 90.6909 0C95.8311 0.00029022 100 4.15805 100 9.28705Z" fill="#E4C80C"/>
<path d="M85.1863 10.6954C84.903 10.6954 84.6682 10.9284 84.6682 11.2154C84.6682 11.5032 84.903 11.7362 85.1863 11.7362C85.4777 11.7362 85.7125 11.5032 85.7125 11.2154C85.7125 10.9284 85.4777 10.6954 85.1863 10.6954Z" fill="white"/>
<path d="M90.6423 11.1525C90.3347 11.379 90.027 11.5459 89.7275 11.6531C89.428 11.7612 89.1204 11.8144 88.7966 11.8144C88.0923 11.8144 87.5014 11.5822 87.04 11.1187C86.5705 10.6543 86.3358 10.0779 86.3358 9.38862C86.3358 8.69935 86.5705 8.12455 87.04 7.66519C87.5095 7.20552 88.1004 6.97592 88.7966 6.97592C89.2418 6.97592 89.6304 7.07105 89.9623 7.26147C90.2942 7.45212 90.5532 7.72711 90.7313 8.08666L87.0886 10.2319C87.2667 10.564 87.5014 10.8212 87.7928 11.0026C88.0924 11.184 88.4242 11.275 88.7966 11.275C89.088 11.275 89.3794 11.2138 89.6709 11.0912C89.9623 10.9687 90.278 10.7672 90.6423 10.4858V11.1525ZM86.9024 9.78767L89.9704 7.96912C89.8409 7.80861 89.679 7.68793 89.4766 7.6061C89.2823 7.5246 89.0556 7.48381 88.7966 7.48381C88.2623 7.48381 87.809 7.66673 87.4448 8.03265C87.0724 8.39865 86.8862 8.84687 86.8862 9.37894C86.8862 9.46359 86.8862 9.53695 86.8943 9.59903C86.8943 9.6611 86.9024 9.72398 86.9024 9.78767Z" fill="white"/>
<path d="M91.4841 11.1162L91.8727 10.7438C92.0427 10.9348 92.2208 11.0783 92.4231 11.1751C92.6255 11.2718 92.8441 11.3202 93.0707 11.3202C93.3621 11.3202 93.5969 11.2396 93.775 11.08C93.9612 10.9195 94.0502 10.7123 94.0502 10.4584C94.0502 10.2319 93.9855 10.0537 93.8478 9.92311C93.7183 9.79331 93.4836 9.68609 93.1355 9.60145C92.5527 9.45634 92.156 9.28462 91.9455 9.08711C91.7351 8.88879 91.6298 8.6147 91.6298 8.26401C91.6298 7.89479 91.7755 7.58417 92.0589 7.33192C92.3503 7.07935 92.7146 6.95319 93.1517 6.95319C93.4188 6.95319 93.6698 6.99704 93.9045 7.08475C94.1312 7.17246 94.3497 7.30226 94.544 7.47478L94.2202 7.901C94.0421 7.74984 93.864 7.63504 93.686 7.55636C93.4998 7.47768 93.3217 7.43842 93.1436 7.43842C92.8522 7.43842 92.6174 7.5125 92.4474 7.66052C92.2693 7.80861 92.1803 8.00362 92.1803 8.24547C92.1803 8.61147 92.496 8.87106 93.1355 9.02584C93.2731 9.05567 93.3702 9.08147 93.435 9.10243C93.8317 9.21448 94.1312 9.37733 94.3254 9.59258C94.5197 9.80702 94.6169 10.0731 94.6169 10.3907C94.6169 10.8075 94.4712 11.1541 94.1716 11.429C93.8721 11.7039 93.4917 11.8418 93.0384 11.8418C92.7146 11.8418 92.4231 11.7805 92.1641 11.658C91.897 11.5354 91.6703 11.3549 91.4841 11.1162Z" fill="white"/>
<path d="M31.8313 27.6064C31.7182 27.6354 31.6178 27.6499 31.5301 27.6499C31.4782 27.6499 31.3952 27.6161 31.2821 27.5491C31.169 27.4822 31.1113 27.4314 31.1113 27.3944C31.1113 27.3766 31.139 27.3403 31.1932 27.2863C31.2475 27.2323 31.2844 27.2057 31.3052 27.2057C31.3986 27.2057 31.5013 27.2178 31.6144 27.2428C31.7597 27.2759 31.8313 27.3154 31.8313 27.3621V27.6064ZM32.0793 31.8097C32.0793 31.8646 32.0447 31.9089 31.9755 31.946C31.9051 31.9815 31.8313 32 31.754 32C31.6824 32 31.5948 31.9726 31.4909 31.9186C31.3882 31.8646 31.3259 31.8138 31.3052 31.767C31.2117 31.5502 31.1575 31.2615 31.1425 30.8996V30.0063C31.1425 29.4211 31.2613 29.0019 31.499 28.7487H31.5532C31.6767 28.7487 31.7874 28.7657 31.8855 28.7979C32.0147 28.8382 32.0793 28.8954 32.0793 28.9712C32.0793 29.0583 32.0401 29.1889 31.9593 29.3638C31.8797 29.5396 31.8394 29.6734 31.8394 29.7677C31.8394 30.2732 31.8474 30.6432 31.8624 30.8778C31.8682 30.9754 31.9063 31.1309 31.979 31.3446C32.0459 31.5429 32.0793 31.6977 32.0793 31.8097Z" fill="#E4C80C"/>
<path d="M34.7791 28.9874C34.7791 29.363 34.6812 29.7081 34.4853 30.0225C34.2611 30.3837 33.9713 30.5642 33.6159 30.5642H33.2629C33.2233 30.5642 33.1091 30.5046 32.9205 30.3853C32.5077 30.1216 32.3013 29.6484 32.3013 28.9656C32.3013 28.6883 32.4624 28.5488 32.7853 28.5488C32.8064 28.5488 32.8339 28.5706 32.8663 28.6141C32.8995 28.6576 32.9157 28.6899 32.9157 28.7117C32.9157 28.7584 32.9035 28.8253 32.8801 28.9116C32.8566 28.9987 32.8444 29.0656 32.8444 29.1123C32.8444 29.3106 32.8971 29.5291 33.0023 29.7677C33.1294 30.0531 33.2775 30.1958 33.4475 30.1958C33.4621 30.1958 33.4718 30.1998 33.4775 30.2087C33.4831 30.2184 33.4912 30.2224 33.5017 30.2224C33.607 30.2224 33.7373 30.12 33.8935 29.9153C34.0344 29.7315 34.1218 29.5799 34.1542 29.4614C34.2084 29.2631 34.2351 29.0632 34.2351 28.8616C34.2351 28.8189 34.2262 28.7568 34.2084 28.6778C34.1939 28.6206 34.1793 28.5593 34.1647 28.494C34.2586 28.4295 34.3299 28.3973 34.3768 28.3973C34.3873 28.3973 34.3995 28.4005 34.4116 28.4077C34.4246 28.415 34.4351 28.419 34.4424 28.419L34.4529 28.3916L34.4691 28.3811C34.6755 28.3811 34.7791 28.5835 34.7791 28.9874Z" fill="#E4C80C"/>
<path d="M37.3371 31.3115C37.3371 31.5574 37.2683 31.7267 37.1307 31.821C37.0149 31.8968 36.8288 31.9347 36.5713 31.9347C36.5066 31.9347 36.2832 31.9041 35.9035 31.8428V31.6638C35.9286 31.6598 36.084 31.6582 36.3706 31.6582C36.4175 31.6582 36.5025 31.6397 36.6256 31.6018C36.7486 31.5631 36.8158 31.53 36.8271 31.501C36.845 31.4542 36.8539 31.3567 36.8539 31.2084C36.8069 31.1116 36.7689 30.9504 36.7397 30.7263C36.7106 30.503 36.6709 30.3401 36.6199 30.2393C36.4685 30.4127 36.2726 30.4989 36.0338 30.4989C35.842 30.4989 35.6566 30.4207 35.4793 30.2635C35.3021 30.1063 35.213 29.9338 35.213 29.746C35.213 29.5581 35.2583 29.3469 35.349 29.1123C35.4502 28.8487 35.5684 28.677 35.7019 28.5972C35.7748 28.5545 35.9537 28.5327 36.2403 28.5327C36.2977 28.5327 36.3949 28.5633 36.5309 28.6246C36.6669 28.6859 36.7527 28.7383 36.7891 28.7818C36.8684 28.8793 36.9089 29.0269 36.9089 29.226V29.3179C36.9858 29.3582 37.0376 29.4388 37.0619 29.5622C37.0692 29.6017 37.0765 29.7024 37.0829 29.8653C37.087 29.9701 37.0935 30.1289 37.104 30.3417C37.1113 30.432 37.1404 30.5626 37.1914 30.7319C37.2432 30.902 37.2724 31.0302 37.2788 31.1164C37.2861 31.1745 37.2918 31.2084 37.295 31.2196C37.3023 31.2591 37.3161 31.2898 37.3371 31.3115ZM36.5009 29.6428C36.5009 29.6178 36.4912 29.5807 36.471 29.5315C36.4507 29.4832 36.441 29.4461 36.441 29.4211C36.441 29.3921 36.4507 29.3518 36.471 29.2993C36.4912 29.2469 36.5009 29.2066 36.5009 29.1768C36.5009 29.1155 36.4564 29.0551 36.3682 28.9954C36.2791 28.9358 36.2022 28.9067 36.1366 28.9067C36.0031 28.9067 35.8744 29.0269 35.7513 29.2695C35.6429 29.4823 35.5886 29.667 35.5886 29.8217C35.5886 29.887 35.6299 29.954 35.7133 30.0225C35.7967 30.091 35.8727 30.1249 35.9416 30.1249C36.0355 30.1249 36.152 30.0684 36.2921 29.9548C36.4313 29.8411 36.5009 29.7371 36.5009 29.6428Z" fill="#E4C80C"/>
<path d="M40.3849 30.4175C40.3849 30.6021 40.2602 30.694 40.0101 30.694C39.9955 30.694 39.9745 30.6811 39.9453 30.6561L39.9016 30.6182C39.7349 30.5062 39.6426 30.4377 39.6248 30.4127L39.4507 30.1418C39.1974 30.2966 39.0597 30.3796 39.0379 30.3909C38.8857 30.4699 38.7319 30.5102 38.5765 30.5102C38.5579 30.5102 38.5311 30.503 38.4947 30.4884C38.4583 30.4739 38.4316 30.4667 38.413 30.4667C38.4024 30.4667 38.3846 30.4699 38.362 30.4772C38.3377 30.4844 38.3207 30.4884 38.3101 30.4884C38.0964 30.4884 37.9184 30.3812 37.7775 30.1684C37.6472 29.9773 37.5816 29.771 37.5816 29.5509C37.5816 28.9841 37.8228 28.6576 38.3045 28.5706C38.4024 28.5053 38.574 28.473 38.8209 28.473C38.9982 28.473 39.1739 28.502 39.3479 28.5601C39.5721 28.6359 39.7041 28.7383 39.7446 28.868C39.7656 28.9333 39.7802 29.0285 39.7875 29.1526C39.7948 29.2776 39.8061 29.3775 39.8199 29.4533C39.8417 29.5726 39.8838 29.7186 39.9453 29.8927C40.0287 30.1273 40.0935 30.2442 40.1404 30.2442C40.1477 30.2442 40.1598 30.2409 40.176 30.2337C40.1922 30.2264 40.2044 30.2224 40.2116 30.2224C40.24 30.2224 40.2764 30.2482 40.3201 30.2982C40.3638 30.349 40.3849 30.3893 40.3849 30.4175ZM39.2224 28.939C39.2192 28.9285 39.2103 28.91 39.1957 28.885C39.0371 28.8519 38.8493 28.8358 38.6339 28.8358C38.5182 28.8358 38.4 28.9035 38.2794 29.039C38.1588 29.1744 38.0981 29.3001 38.0981 29.4154C38.0981 29.9282 38.2583 30.1853 38.5789 30.1853C38.6258 30.1853 38.7019 30.149 38.8064 30.0765C38.9003 30.0152 38.9666 29.9612 39.0063 29.9144C39.1002 29.8096 39.1561 29.6629 39.1739 29.4751C39.1812 29.4066 39.1852 29.2453 39.1852 28.993C39.2103 28.9825 39.2224 28.964 39.2224 28.939Z" fill="#E4C80C"/>
<path d="M42.8628 28.473C42.624 28.4875 42.3811 28.5996 42.1342 28.8092C41.9205 28.9898 41.7473 29.1986 41.6129 29.4372C41.57 29.5202 41.5336 29.6266 41.5044 29.7572C41.468 29.9378 41.4429 30.0475 41.4283 30.0878C41.4032 30.2063 41.383 30.295 41.3684 30.353C41.3393 30.4651 41.2834 30.5207 41.2001 30.5207C41.1207 30.5207 41.0357 30.4892 40.9451 30.4256C40.8544 30.3627 40.8091 30.2933 40.8091 30.2176C40.8091 30.199 40.8123 30.0402 40.8196 29.7403C40.8269 29.5025 40.8237 29.3582 40.8091 29.3074C40.8123 29.2744 40.8196 29.1825 40.8309 29.0309C40.8382 28.9229 40.8925 28.868 40.9936 28.868C41.0333 28.868 41.0867 28.8834 41.1539 28.9116C41.2211 28.9406 41.2656 28.9696 41.2875 28.9986C41.3846 28.8834 41.5028 28.7657 41.6404 28.6463L41.689 28.6681C41.7003 28.6028 41.7238 28.5544 41.7594 28.5214C41.7667 28.5141 41.8177 28.4819 41.9116 28.4247C42.0314 28.3481 42.1051 28.3102 42.1342 28.3102C42.1456 28.3102 42.1528 28.3142 42.1561 28.3215C42.1601 28.3287 42.1674 28.3319 42.1779 28.3319C42.1925 28.3319 42.2111 28.319 42.2346 28.2941C42.2589 28.2691 42.2775 28.2562 42.2921 28.2562C42.3034 28.2562 42.3091 28.2626 42.3107 28.2755C42.3131 28.2876 42.3212 28.2941 42.3358 28.2941L42.3576 28.2836L42.3463 28.2666L42.3682 28.2562C42.56 28.2602 42.6782 28.2739 42.7211 28.2997C42.7357 28.3215 42.7648 28.3481 42.8085 28.3811C42.815 28.4134 42.8336 28.444 42.8628 28.473Z" fill="#E4C80C"/>
<path d="M46.1113 28.6407C46.1113 28.7528 46.0497 28.8092 45.9267 28.8092C45.8684 28.8092 45.7826 28.7906 45.6685 28.7552C45.5543 28.7189 45.4685 28.7004 45.4102 28.7004C45.1067 28.7004 44.9067 28.8277 44.8128 29.0825C44.7335 29.2977 44.6938 29.4251 44.6938 29.4646C44.6938 29.6936 44.7966 29.8806 45.0031 30.0241C45.1844 30.1531 45.3965 30.2176 45.6385 30.2176C45.6531 30.2176 45.6701 30.2127 45.6903 30.2039C45.7106 30.195 45.726 30.1902 45.7365 30.1902C45.7729 30.1902 45.8166 30.2103 45.8668 30.2498C45.9178 30.2901 45.9429 30.3272 45.9429 30.3635C45.9429 30.4578 45.8741 30.5046 45.7365 30.5046C45.7219 30.5046 45.7 30.5134 45.6717 30.5312C45.6426 30.5497 45.6183 30.5586 45.6005 30.5586C45.4232 30.5586 45.2184 30.5046 44.9869 30.3965C44.744 30.2845 44.5797 30.1587 44.4923 30.0184C44.4494 29.9249 44.3749 29.7879 44.2697 29.6073C44.2697 29.5896 44.2624 29.5613 44.2478 29.5234C44.2332 29.4864 44.226 29.4565 44.226 29.4348C44.226 29.1244 44.2948 28.8801 44.4324 28.6995C44.5846 28.498 44.8112 28.3972 45.1115 28.3972C45.1447 28.3972 45.1941 28.3908 45.2613 28.3779C45.3277 28.3658 45.3779 28.3593 45.4102 28.3593C45.5268 28.3593 45.662 28.3827 45.8182 28.4295C46.0133 28.4875 46.1113 28.5577 46.1113 28.6407Z" fill="#E4C80C"/>
<path d="M48.9201 29.4154C48.9201 29.6903 48.7777 29.9467 48.4935 30.1853C48.2094 30.4231 47.9277 30.5424 47.6492 30.5424H47.4801C47.2121 30.5424 46.9749 30.4336 46.7685 30.2143C46.5621 29.9959 46.4593 29.7532 46.4593 29.4864C46.4593 29.4751 46.482 29.3993 46.5297 29.2582C46.5224 29.2115 46.5184 29.1824 46.5184 29.172C46.5184 29.0599 46.5896 28.9043 46.7305 28.706C46.8721 28.5077 46.9952 28.4077 47.1004 28.4077C47.1223 28.4077 47.1546 28.4271 47.1975 28.465C47.2413 28.5028 47.2777 28.5214 47.3068 28.5214C47.3392 28.5214 47.387 28.5028 47.4501 28.465C47.5141 28.4271 47.5545 28.4077 47.5732 28.4077C47.7537 28.4077 47.8719 28.4222 47.9253 28.4512L48.0022 28.4996C48.0159 28.4996 48.0354 28.494 48.0588 28.4811C48.0823 28.4682 48.1018 28.4617 48.1163 28.4617C48.1382 28.473 48.1924 28.5036 48.279 28.5544C48.7064 28.814 48.9201 29.1018 48.9201 29.4154ZM48.3932 29.3501C48.3932 29.1881 48.3316 29.043 48.2086 28.9148C48.0856 28.7866 47.9423 28.7221 47.7796 28.7221C47.6849 28.7221 47.6088 28.7511 47.5513 28.8092L47.4315 28.9285C47.323 28.9712 47.2121 29.0148 47.1004 29.0583C47.0308 29.105 46.9968 29.2187 46.9968 29.3993C46.9968 29.9265 47.1328 30.1902 47.404 30.1902C47.6177 30.1902 47.8362 30.1015 48.0588 29.9249C48.2815 29.7476 48.3932 29.5565 48.3932 29.3501Z" fill="#E4C80C"/>
<path d="M51.3535 29.3888C51.3535 29.6702 51.3122 29.9088 51.2289 30.1031C51.2143 30.1724 51.1908 30.2772 51.1584 30.4175C51.1253 30.5586 51.0734 30.6287 51.0006 30.6287C50.9828 30.6287 50.9617 30.6134 50.9383 30.5828C50.9148 30.5529 50.8954 30.5368 50.8808 30.5368C50.8703 30.5368 50.8622 30.54 50.8565 30.5449C50.8516 30.5505 50.8452 30.5529 50.8379 30.5529C50.8201 30.5529 50.8023 30.5296 50.7861 30.4828C50.7699 30.436 50.7505 30.4127 50.7294 30.4127H50.6914C50.7739 30.0934 50.816 29.7379 50.816 29.3469C50.816 29.0527 50.7755 28.8826 50.6962 28.8358C50.591 28.8358 50.4574 28.9188 50.2947 29.0849C50.153 29.23 50.0559 29.3582 50.0041 29.4695C49.9515 29.5815 49.9037 29.7315 49.86 29.9193C49.7912 30.2087 49.7548 30.3619 49.7515 30.3796C49.7224 30.4844 49.6665 30.5368 49.5824 30.5368C49.4957 30.5368 49.4075 30.5054 49.3168 30.4425C49.2262 30.3796 49.1808 30.3054 49.1808 30.2224C49.1808 29.363 49.2084 28.8592 49.2626 28.7117C49.2877 28.6464 49.3654 28.6141 49.4957 28.6141C49.5686 28.6141 49.6342 28.6456 49.6941 28.7084C49.754 28.7721 49.7855 28.8398 49.7888 28.9116C49.8398 28.8616 49.9175 28.789 50.0227 28.6947C50.128 28.6012 50.2186 28.5545 50.2947 28.5545L50.3158 28.5601V28.5649L50.3328 28.5754C50.3465 28.5722 50.3668 28.5585 50.3918 28.5351C50.4178 28.5117 50.4412 28.4996 50.4631 28.4996C50.6185 28.4996 50.7165 28.5141 50.7561 28.5432C50.7812 28.5754 50.8031 28.5923 50.8217 28.5923C50.8322 28.5923 50.8419 28.5899 50.8484 28.5867H50.8427L50.8646 28.5754C51.0095 28.5754 51.1309 28.6786 51.2289 28.885C51.3122 29.0583 51.3535 29.226 51.3535 29.3888Z" fill="#E4C80C"/>
<path d="M55.2763 28.473C55.0375 28.4875 54.7946 28.5996 54.5485 28.8092C54.334 28.9898 54.1608 29.1986 54.0264 29.4372C53.9835 29.5202 53.9471 29.6266 53.9179 29.7572C53.8815 29.9378 53.8564 30.0475 53.8419 30.0878C53.8168 30.2063 53.7965 30.295 53.782 30.353C53.7528 30.4651 53.697 30.5207 53.6136 30.5207C53.5343 30.5207 53.4493 30.4892 53.3586 30.4256C53.2679 30.3627 53.2226 30.2933 53.2226 30.2176C53.2226 30.199 53.2258 30.0402 53.2331 29.7403C53.2404 29.5025 53.2372 29.3582 53.2226 29.3074C53.2258 29.2744 53.2331 29.1825 53.2445 29.0309C53.2517 28.9229 53.306 28.868 53.4072 28.868C53.4468 28.868 53.5003 28.8834 53.5674 28.9116C53.6346 28.9406 53.6791 28.9696 53.701 28.9986C53.7981 28.8834 53.9163 28.7657 54.0539 28.6463L54.1025 28.6681C54.1138 28.6028 54.1373 28.5544 54.1729 28.5214C54.1802 28.5141 54.2312 28.4819 54.3251 28.4247C54.4449 28.3481 54.5186 28.3102 54.5485 28.3102C54.5591 28.3102 54.5664 28.3142 54.5696 28.3215C54.5736 28.3287 54.5809 28.3319 54.5914 28.3319C54.606 28.3319 54.6254 28.319 54.6489 28.2941C54.6724 28.2691 54.691 28.2562 54.7056 28.2562C54.7169 28.2562 54.7226 28.2626 54.725 28.2755C54.7266 28.2876 54.7347 28.2941 54.7493 28.2941L54.7712 28.2836L54.7598 28.2666L54.7817 28.2562C54.9735 28.2602 55.0917 28.2739 55.1346 28.2997C55.1492 28.3215 55.1783 28.3481 55.222 28.3811C55.2285 28.4134 55.2471 28.444 55.2763 28.473Z" fill="#E4C80C"/>
<path d="M57.4441 29.0148C57.4441 29.2099 57.2976 29.405 57.0037 29.6C56.7326 29.7806 56.4929 29.8709 56.2865 29.8709C56.2501 29.8669 56.1182 29.8492 55.8899 29.8161L55.885 29.8113L55.8737 29.8435C55.8737 29.9193 55.9287 30.0072 56.0364 30.1063C56.1457 30.2055 56.2922 30.27 56.4768 30.2982C56.586 30.3095 56.7504 30.3312 56.9714 30.3635C57.1673 30.3957 57.2733 30.4127 57.2919 30.4127V30.5747C57.2085 30.5747 57.0847 30.5844 56.9195 30.6045C56.7552 30.6247 56.6306 30.6344 56.5472 30.6344C56.272 30.6344 56.0056 30.532 55.749 30.3264C55.4738 30.1071 55.3362 29.8637 55.3362 29.5968C55.3362 29.4025 55.4147 29.1962 55.5726 28.9785C55.7296 28.76 55.9012 28.6149 56.0858 28.5432C56.2558 28.4787 56.4444 28.4456 56.6508 28.4456C56.6621 28.4456 56.6775 28.4513 56.6994 28.4617C56.7212 28.473 56.739 28.4787 56.7536 28.4787C56.7609 28.4787 56.773 28.4746 56.7892 28.4674C56.8054 28.4601 56.8192 28.4569 56.8297 28.4569C56.8443 28.4569 56.9098 28.4875 57.0256 28.5488C57.1956 28.6391 57.2919 28.6947 57.3138 28.7165C57.4004 28.7858 57.4441 28.885 57.4441 29.0148ZM56.96 28.9688C56.96 28.8842 56.8661 28.8414 56.6775 28.8414C56.5261 28.8414 56.3723 28.9067 56.2185 29.0382C56.0647 29.1696 55.9643 29.3098 55.9174 29.459C55.9498 29.463 55.983 29.4646 56.0153 29.4646C56.0477 29.4646 56.0947 29.4606 56.1562 29.4533C56.2177 29.4461 56.2647 29.4428 56.2979 29.4428C56.3845 29.4428 56.5164 29.3832 56.6945 29.2647C56.8718 29.1454 56.96 29.047 56.96 28.9688Z" fill="#E4C80C"/>
<path d="M59.3837 28.5053C59.3837 28.6028 59.3327 28.652 59.2315 28.652C59.1805 28.652 59.1036 28.6407 59.0008 28.619C58.8971 28.5972 58.8202 28.5867 58.7692 28.5867C58.6098 28.5867 58.4924 28.6206 58.4163 28.6899C58.4131 28.7544 58.4106 28.8028 58.4106 28.835C58.4106 29.0406 58.4794 29.2478 58.6171 29.4566C58.6826 29.5573 58.813 29.7137 59.0089 29.9266C59.1465 30.0781 59.2153 30.1845 59.2153 30.245C59.2153 30.4619 58.9069 30.5699 58.2908 30.5699C58.2447 30.5699 58.1654 30.5449 58.0553 30.4965C57.9444 30.4473 57.8731 30.407 57.8408 30.374V30.3095C58.0213 30.2772 58.1427 30.2611 58.2042 30.2611C58.2803 30.2611 58.3637 30.2498 58.4544 30.2281C58.5774 30.199 58.6389 30.1579 58.6389 30.1031C58.6389 30.0676 58.5742 29.9717 58.4438 29.8161C58.2949 29.6363 58.1775 29.4662 58.0901 29.3074C57.9598 29.0615 57.895 28.8124 57.895 28.5601C57.895 28.4658 57.9509 28.3948 58.0634 28.3481C58.1605 28.3191 58.2568 28.2908 58.3515 28.2618L58.3896 28.2997C58.4584 28.2634 58.6122 28.2457 58.851 28.2457C58.9344 28.2457 59.0372 28.2691 59.161 28.3158C59.3092 28.3739 59.3837 28.4368 59.3837 28.5053Z" fill="#E4C80C"/>
<path d="M62.2355 29.0043C62.2355 29.8524 61.7069 30.3812 60.6489 30.5916C60.5947 30.956 60.5671 31.3607 60.5671 31.8049C60.5671 31.8444 60.5364 31.9024 60.4757 31.9782C60.4538 31.9815 60.4279 31.9831 60.3996 31.9831C60.2433 31.9831 60.1017 31.9258 59.9754 31.8097V31.2414C59.9754 31.0898 60.0094 30.6255 60.079 29.8491C60.0928 29.6033 60.1057 29.3558 60.1163 29.1067C60.164 28.71 60.2539 28.5109 60.3882 28.5109C60.4133 28.5109 60.4538 28.5262 60.508 28.5569C60.5623 28.5875 60.6019 28.6028 60.6279 28.6028C60.6489 28.5883 60.6959 28.5432 60.7687 28.4674C60.8917 28.3376 61.1346 28.2723 61.4964 28.2723C61.507 28.2723 61.5223 28.2844 61.5402 28.3077C61.558 28.3311 61.575 28.3424 61.5887 28.3424C61.6073 28.3424 61.6268 28.3319 61.6486 28.3102L61.6867 28.3481C61.8024 28.3811 61.923 28.4706 62.0477 28.6165C62.1732 28.7624 62.2355 28.8922 62.2355 29.0043ZM61.719 28.9986C61.719 28.9301 61.6948 28.8527 61.6454 28.7681C61.5968 28.6834 61.5393 28.6407 61.4738 28.6407C61.1127 28.6407 60.8837 28.9567 60.7857 29.5887L60.6983 30.2063C60.7274 30.203 60.7452 30.2071 60.7525 30.22C60.7598 30.2329 60.7687 30.2409 60.78 30.2442C60.9363 30.1184 61.0399 30.0547 61.0917 30.0547C61.1055 30.0547 61.1443 30.0209 61.2058 29.9515C61.3953 29.7355 61.5134 29.5928 61.5612 29.5234C61.6664 29.3654 61.719 29.1897 61.719 28.9986Z" fill="#E4C80C"/>
<path d="M65.1311 29.4154C65.1311 29.6903 64.9894 29.9467 64.7045 30.1853C64.4204 30.4231 64.1386 30.5424 63.8602 30.5424H63.691C63.4231 30.5424 63.1867 30.4336 62.9795 30.2143C62.773 29.9959 62.6702 29.7532 62.6702 29.4864C62.6702 29.4751 62.6937 29.3993 62.7407 29.2582C62.7334 29.2115 62.7301 29.1824 62.7301 29.172C62.7301 29.0599 62.8006 28.9043 62.9422 28.706C63.0831 28.5077 63.2061 28.4077 63.3113 28.4077C63.3332 28.4077 63.3656 28.4271 63.4093 28.465C63.4522 28.5028 63.4886 28.5214 63.5178 28.5214C63.5501 28.5214 63.5979 28.5028 63.6619 28.465C63.725 28.4271 63.7655 28.4077 63.7841 28.4077C63.9654 28.4077 64.0828 28.4222 64.137 28.4512L64.2131 28.4996C64.2277 28.4996 64.2463 28.494 64.2706 28.4811C64.2941 28.4682 64.3127 28.4617 64.3273 28.4617C64.3491 28.473 64.4034 28.5036 64.49 28.5544C64.9174 28.814 65.1311 29.1018 65.1311 29.4154ZM64.6041 29.3501C64.6041 29.1881 64.5426 29.043 64.4195 28.9148C64.2965 28.7866 64.1532 28.7221 63.9905 28.7221C63.8958 28.7221 63.8197 28.7511 63.7622 28.8092L63.6424 28.9285C63.534 28.9712 63.4231 29.0148 63.3113 29.0583C63.2425 29.105 63.2077 29.2187 63.2077 29.3993C63.2077 29.9265 63.3437 30.1902 63.6149 30.1902C63.8294 30.1902 64.0472 30.1015 64.2706 29.9249C64.4932 29.7476 64.6041 29.5565 64.6041 29.3501Z" fill="#E4C80C"/>
<path d="M67.5652 29.3888C67.5652 29.6702 67.5231 29.9088 67.4405 30.1031C67.4252 30.1724 67.4017 30.2772 67.3693 30.4175C67.3369 30.5586 67.2843 30.6287 67.2123 30.6287C67.1937 30.6287 67.1726 30.6134 67.1491 30.5828C67.1257 30.5529 67.107 30.5368 67.0925 30.5368C67.0811 30.5368 67.073 30.54 67.0682 30.5449C67.0625 30.5505 67.056 30.5529 67.0488 30.5529C67.0309 30.5529 67.0139 30.5296 66.9969 30.4828C66.9808 30.436 66.9621 30.4127 66.9403 30.4127H66.9022C66.9856 30.0934 67.0269 29.7379 67.0269 29.3469C67.0269 29.0527 66.9872 28.8826 66.9079 28.8358C66.8027 28.8358 66.6683 28.9188 66.5056 29.0849C66.3639 29.23 66.2676 29.3582 66.215 29.4695C66.1624 29.5815 66.1146 29.7315 66.0709 29.9193C66.0021 30.2087 65.9657 30.3619 65.9624 30.3796C65.9333 30.4844 65.8774 30.5368 65.794 30.5368C65.7066 30.5368 65.6184 30.5054 65.5277 30.4425C65.4371 30.3796 65.3917 30.3054 65.3917 30.2224C65.3917 29.363 65.4192 28.8592 65.4735 28.7117C65.4986 28.6464 65.5763 28.6141 65.7066 28.6141C65.7795 28.6141 65.8458 28.6456 65.9049 28.7084C65.9648 28.7721 65.9972 28.8398 66.0005 28.9116C66.0515 28.8616 66.1292 28.789 66.2336 28.6947C66.3388 28.6012 66.4295 28.5545 66.5056 28.5545L66.5274 28.5601V28.5649L66.5436 28.5754C66.5582 28.5722 66.5784 28.5585 66.6035 28.5351C66.6286 28.5117 66.6521 28.4996 66.674 28.4996C66.8294 28.4996 66.9273 28.5141 66.9678 28.5432C66.9929 28.5754 67.0148 28.5923 67.0326 28.5923C67.0431 28.5923 67.0528 28.5899 67.0593 28.5867H67.0544L67.0763 28.5754C67.2212 28.5754 67.3426 28.6786 67.4405 28.885C67.5231 29.0583 67.5652 29.226 67.5652 29.3888Z" fill="#E4C80C"/>
<path d="M69.597 28.5053C69.597 28.6028 69.546 28.652 69.4448 28.652C69.3938 28.652 69.3169 28.6407 69.2141 28.619C69.1105 28.5972 69.0336 28.5867 68.9834 28.5867C68.8232 28.5867 68.7058 28.6206 68.6297 28.6899C68.6265 28.7544 68.6248 28.8028 68.6248 28.835C68.6248 29.0406 68.6928 29.2478 68.8312 29.4566C68.896 29.5573 69.0263 29.7137 69.2222 29.9266C69.3599 30.0781 69.4287 30.1845 69.4287 30.245C69.4287 30.4619 69.1202 30.5699 68.505 30.5699C68.4581 30.5699 68.3787 30.5449 68.2687 30.4965C68.1578 30.4473 68.0865 30.407 68.0541 30.374V30.3095C68.2347 30.2772 68.3561 30.2611 68.4176 30.2611C68.4937 30.2611 68.5771 30.2498 68.6677 30.2281C68.7908 30.199 68.8531 30.1579 68.8531 30.1031C68.8531 30.0676 68.7875 29.9717 68.6572 29.8161C68.5083 29.6363 68.3909 29.4662 68.3043 29.3074C68.1739 29.0615 68.1084 28.8124 68.1084 28.5601C68.1084 28.4658 68.1642 28.3948 68.2767 28.3481C68.3747 28.3191 68.4702 28.2908 68.5649 28.2618L68.603 28.2997C68.6718 28.2634 68.8256 28.2457 69.0644 28.2457C69.1478 28.2457 69.2514 28.2691 69.3744 28.3158C69.5226 28.3739 69.597 28.4368 69.597 28.5053Z" fill="#E4C80C"/>
<path d="M72.6666 30.4175C72.6666 30.6021 72.5411 30.694 72.2918 30.694C72.2772 30.694 72.2554 30.6811 72.2262 30.6561L72.1825 30.6182C72.0158 30.5062 71.9235 30.4377 71.9057 30.4127L71.7317 30.1418C71.4783 30.2966 71.3407 30.3796 71.3188 30.3909C71.1666 30.4699 71.0128 30.5102 70.8574 30.5102C70.8388 30.5102 70.8121 30.503 70.7756 30.4884C70.7392 30.4739 70.7125 30.4667 70.6939 30.4667C70.6834 30.4667 70.6664 30.4699 70.6429 30.4772C70.6186 30.4844 70.6016 30.4884 70.5911 30.4884C70.3774 30.4884 70.2001 30.3812 70.0584 30.1684C69.9281 29.9773 69.8633 29.771 69.8633 29.5509C69.8633 28.9841 70.1038 28.6576 70.5854 28.5706C70.6834 28.5053 70.855 28.473 71.1019 28.473C71.2791 28.473 71.4548 28.502 71.6288 28.5601C71.8531 28.6359 71.985 28.7383 72.0255 28.868C72.0465 28.9333 72.0611 29.0285 72.0684 29.1526C72.0757 29.2776 72.0862 29.3775 72.1016 29.4533C72.1226 29.5726 72.1647 29.7186 72.2262 29.8927C72.3096 30.1273 72.3744 30.2442 72.4221 30.2442C72.4294 30.2442 72.4408 30.2409 72.457 30.2337C72.4731 30.2264 72.4853 30.2224 72.4926 30.2224C72.5217 30.2224 72.5573 30.2482 72.601 30.2982C72.6448 30.349 72.6666 30.3893 72.6666 30.4175ZM71.5034 28.939C71.5001 28.9285 71.4912 28.91 71.4767 28.885C71.318 28.8519 71.131 28.8358 70.9141 28.8358C70.7991 28.8358 70.6809 28.9035 70.5603 29.039C70.4397 29.1744 70.379 29.3001 70.379 29.4154C70.379 29.9282 70.5393 30.1853 70.8606 30.1853C70.9068 30.1853 70.9829 30.149 71.0873 30.0765C71.1812 30.0152 71.2476 29.9612 71.2872 29.9144C71.3811 29.8096 71.437 29.6629 71.4548 29.4751C71.4621 29.4066 71.4653 29.2453 71.4653 28.993C71.4912 28.9825 71.5034 28.964 71.5034 28.939Z" fill="#E4C80C"/>
<path d="M75.5072 29.1446C75.5072 29.1696 75.4837 29.2856 75.4367 29.4912C75.3971 29.542 75.3574 29.6444 75.3177 29.7976C75.2781 29.9507 75.2287 30.0547 75.1704 30.1095C75.0474 30.2248 74.892 30.324 74.7033 30.407C74.501 30.4973 74.3213 30.5425 74.1658 30.5425C73.8323 30.5425 73.6656 30.4143 73.6656 30.1579V30.12C73.7781 30.1668 73.8412 30.1902 73.8558 30.1902C73.9028 30.1902 73.9724 30.1877 74.0622 30.1821C74.1529 30.1765 74.2217 30.174 74.2686 30.174C74.2945 30.174 74.3237 30.1636 74.3561 30.1418C74.62 29.9693 74.7908 29.8306 74.8669 29.7258C74.9713 29.5823 75.0239 29.3719 75.0239 29.0946C75.0239 29.0156 74.9818 28.9366 74.896 28.8576C74.811 28.7778 74.7284 28.7383 74.6491 28.7383C74.4281 28.7383 74.2128 28.9575 74.0031 29.3961C73.9845 29.4428 73.9538 29.5146 73.91 29.6113C73.8704 29.6903 73.8089 29.7298 73.7255 29.7298C73.6818 29.7298 73.6105 29.6992 73.511 29.6379C73.4114 29.5759 73.3612 29.5275 73.3612 29.4912C73.3612 29.2026 73.3685 28.8519 73.3823 28.44C73.3887 28.2062 73.4333 27.8757 73.5142 27.4492C73.5215 27.4129 73.5247 27.3807 73.5247 27.3516V27.2404V27.1291C73.5247 26.88 73.5919 26.7559 73.7279 26.7559C73.8153 26.7559 73.8955 26.7696 73.9683 26.7994C74.0671 26.8349 74.1165 26.8889 74.1165 26.9615C74.1165 27.0445 74.1003 27.1453 74.0671 27.2646C74.0218 27.4315 73.9958 27.5322 73.9886 27.5685C73.9327 27.9079 73.9052 28.2296 73.9052 28.5327L73.9376 28.5649C74.2743 28.4529 74.5228 28.3972 74.6815 28.3972C74.845 28.3972 75.0231 28.4819 75.2166 28.652C75.4108 28.8213 75.5072 28.9857 75.5072 29.1446Z" fill="#E4C80C"/>
<path d="M76.7021 28.939C76.7021 28.9825 76.6978 29.0446 76.688 29.126C76.6782 29.2066 76.6738 29.2655 76.6738 29.3018C76.6684 29.3961 76.6684 29.5081 76.6738 29.6379V29.9789C76.6738 30.2393 76.6336 30.4159 76.5552 30.5102C76.5356 30.5102 76.5062 30.5175 76.467 30.5312C76.4278 30.5457 76.3952 30.5529 76.3712 30.5529C76.307 30.5529 76.2678 30.5481 76.2526 30.5368L76.1938 30.461L76.172 30.515C75.975 30.2877 75.8771 30.0273 75.8771 29.7355V29.1607C75.8771 28.9874 75.8847 28.8793 75.8988 28.8358C75.9424 28.706 76.0403 28.6407 76.1916 28.6407C76.3223 28.6407 76.4409 28.6673 76.5454 28.7197C76.6499 28.7721 76.7021 28.8447 76.7021 28.939ZM77.0308 27.4161C77.0308 27.525 76.9514 27.579 76.7903 27.579C76.6825 27.579 76.5301 27.5226 76.3299 27.4081C76.1296 27.2944 76.0305 27.2017 76.0305 27.1291C76.0305 27.1009 76.048 27.0647 76.0817 27.0211C76.1938 27.0389 76.3397 27.0534 76.5204 27.0647C76.861 27.238 77.0308 27.3557 77.0308 27.4161Z" fill="#E4C80C"/>
<path d="M77.8652 27.2162C77.8652 27.5193 77.8409 27.9716 77.7923 28.573C77.743 29.1744 77.7187 29.6266 77.7187 29.9298C77.7187 30.3417 77.6515 30.5481 77.5179 30.5481C77.5066 30.5481 77.407 30.4884 77.2184 30.3691C77.1828 30.2748 77.165 30.1402 77.165 29.9628C77.165 29.7065 77.1844 29.3235 77.2241 28.814C77.2637 28.3053 77.284 27.9224 77.284 27.6652V27.0912C77.3382 27.001 77.4159 26.9558 77.5179 26.9558C77.5972 26.9558 77.675 26.9808 77.7511 27.0292C77.8271 27.0783 77.8652 27.1404 77.8652 27.2162Z" fill="#E4C80C"/>
<path d="M79.1306 28.939C79.1306 28.9825 79.1262 29.0446 79.1164 29.126C79.1066 29.2066 79.1012 29.2655 79.1012 29.3018C79.0968 29.3961 79.0968 29.5081 79.1012 29.6379V29.9789C79.1012 30.2393 79.062 30.4159 78.9837 30.5102C78.9641 30.5102 78.9347 30.5175 78.8955 30.5312C78.8563 30.5457 78.8236 30.5529 78.7986 30.5529C78.7355 30.5529 78.6963 30.5481 78.6811 30.5368L78.6223 30.461L78.6005 30.515C78.4035 30.2877 78.3055 30.0273 78.3055 29.7355V29.1607C78.3055 28.9874 78.3132 28.8793 78.3273 28.8358C78.3709 28.706 78.4688 28.6407 78.6201 28.6407C78.7507 28.6407 78.8694 28.6673 78.9739 28.7197C79.0783 28.7721 79.1306 28.8447 79.1306 28.939ZM79.4593 27.4161C79.4593 27.525 79.3788 27.579 79.2188 27.579C79.111 27.579 78.9586 27.5226 78.7583 27.4081C78.5581 27.2944 78.459 27.2017 78.459 27.1291C78.459 27.1009 78.4764 27.0647 78.5102 27.0211C78.6223 27.0389 78.7681 27.0534 78.9477 27.0647C79.2895 27.238 79.4593 27.3557 79.4593 27.4161Z" fill="#E4C80C"/>
<path d="M81.8835 29.4533C81.7783 29.6702 81.584 29.9016 81.3007 30.1466C80.9931 30.4175 80.734 30.5529 80.5276 30.5529H80.2127C80.1973 30.5529 80.1585 30.5312 80.0929 30.4884C79.897 30.3587 79.7724 30.2643 79.7181 30.2063C79.6056 30.0878 79.5497 29.9427 79.5497 29.7734C79.5497 29.6146 79.6331 29.3905 79.7991 29.1018C79.9772 28.7907 80.1382 28.6391 80.2831 28.6464C80.3301 28.5996 80.4224 28.5416 80.56 28.473C80.6976 28.4045 80.7988 28.3682 80.8555 28.3642L80.8716 28.3755L80.8636 28.3973L80.8797 28.4029C80.9121 28.4029 80.9526 28.3964 81.0093 28.3835C81.0578 28.3706 81.0983 28.3642 81.1307 28.3642C81.2197 28.3642 81.3169 28.3827 81.414 28.419C81.5273 28.4617 81.6002 28.5182 81.6245 28.5867C81.7297 28.3303 81.8026 28.1151 81.8268 27.9418C81.843 27.841 81.8511 27.6169 81.8511 27.2702C81.8511 27.0647 81.8349 26.9381 81.8188 26.8913C81.8511 26.8913 81.8997 26.8865 81.9645 26.8776C82.0292 26.8688 82.0778 26.8639 82.1102 26.8639C82.2073 26.8639 82.2802 26.9744 82.3206 27.1945C82.3044 27.238 82.2964 27.3428 82.3044 27.5089C82.3044 27.5919 82.3125 27.662 82.3125 27.7201C82.3125 27.7781 82.3206 27.8192 82.3206 27.8442C82.3206 28.3392 82.1749 28.8721 81.8835 29.4533ZM81.5759 28.8785C81.5759 28.8648 81.5678 28.8374 81.5516 28.7979C81.5273 28.8092 81.5031 28.814 81.4869 28.814C81.4545 28.814 81.4059 28.7955 81.325 28.7568C81.2521 28.7197 81.2035 28.7004 81.1712 28.7004C81.155 28.7004 81.0659 28.7294 80.9121 28.7866C80.6887 28.8697 80.5001 28.997 80.3479 29.1696C80.1739 29.3647 80.0872 29.571 80.0872 29.7903C80.0872 29.8879 80.1107 29.9709 80.1585 30.0386C80.2127 30.1184 80.2848 30.1579 80.3754 30.1579C80.39 30.1579 80.4135 30.1555 80.4459 30.1499C80.4782 30.1442 80.5017 30.1418 80.5163 30.1418C80.6685 30.1418 80.8797 29.9709 81.1631 29.6291C81.4383 29.2873 81.5759 29.0373 81.5759 28.8785Z" fill="#E4C80C"/>
<path d="M85.0162 30.694C85.0001 30.694 84.9758 30.6811 84.9515 30.6561L84.9029 30.6182C84.741 30.5062 84.6439 30.4377 84.6277 30.4127L84.4577 30.1418C84.1987 30.2966 84.061 30.3796 84.0449 30.3909C83.891 30.4699 83.7372 30.5102 83.5834 30.5102C83.5592 30.5102 83.5349 30.503 83.5025 30.4884C83.462 30.4739 83.4377 30.4667 83.4215 30.4667C83.4054 30.4667 83.3892 30.4699 83.3649 30.4772C83.3406 30.4844 83.3244 30.4884 83.3163 30.4884C83.0977 30.4884 82.9197 30.3812 82.782 30.1684C82.6525 29.9773 82.5878 29.771 82.5878 29.5509C82.5878 28.9841 82.8306 28.6576 83.3082 28.5706C83.4054 28.5053 83.5753 28.473 83.8263 28.473C84.0044 28.473 84.1744 28.502 84.3525 28.5601C84.5791 28.6359 84.7086 28.7383 84.7491 28.868C84.7734 28.9333 84.7815 29.0285 84.7896 29.1526C84.7977 29.2776 84.8139 29.3775 84.822 29.4533C84.8463 29.5726 84.8867 29.7186 84.9515 29.8927C85.0324 30.1273 85.0972 30.2442 85.1458 30.2442C85.1539 30.2442 85.162 30.2409 85.1781 30.2337C85.1943 30.2264 85.2105 30.2224 85.2186 30.2224C85.2429 30.2224 85.2834 30.2482 85.3239 30.2982C85.3643 30.349 85.3886 30.3893 85.3886 30.4175C85.3886 30.6021 85.2672 30.694 85.0162 30.694ZM84.231 28.939C84.2229 28.9285 84.2148 28.91 84.1987 28.885C84.0449 28.8519 83.8506 28.8358 83.6401 28.8358C83.5187 28.8358 83.4054 28.9035 83.2839 29.039C83.1625 29.1744 83.1058 29.3001 83.1058 29.4154C83.1058 29.9282 83.2596 30.1853 83.5834 30.1853C83.632 30.1853 83.7049 30.149 83.8101 30.0765C83.9072 30.0152 83.972 29.9612 84.0125 29.9144C84.1015 29.8096 84.1582 29.6629 84.1825 29.4751C84.1825 29.4066 84.1906 29.2453 84.1906 28.993C84.2148 28.9825 84.231 28.964 84.231 28.939Z" fill="#E4C80C"/>
<path d="M88.1571 29.4533C88.0519 29.6702 87.8576 29.9016 87.5823 30.1466C87.2666 30.4175 87.0076 30.5529 86.8052 30.5529H86.4895C86.4733 30.5529 86.4329 30.5312 86.3681 30.4884C86.1738 30.3587 86.0443 30.2643 85.9957 30.2063C85.8824 30.0878 85.8257 29.9427 85.8257 29.7734C85.8257 29.6146 85.9067 29.3905 86.0767 29.1018C86.2548 28.7907 86.4167 28.6391 86.5543 28.6464C86.6029 28.5996 86.7 28.5416 86.8376 28.473C86.9752 28.4045 87.0724 28.3682 87.1371 28.3642L87.1533 28.3755L87.1371 28.3973L87.1533 28.4029C87.1857 28.4029 87.2262 28.3964 87.2828 28.3835C87.3314 28.3706 87.38 28.3642 87.4043 28.3642C87.4933 28.3642 87.5904 28.3827 87.6876 28.419C87.8009 28.4617 87.8738 28.5182 87.898 28.5867C88.0114 28.3303 88.0761 28.1151 88.1004 27.9418C88.1166 27.841 88.1247 27.6169 88.1247 27.2702C88.1247 27.0647 88.1166 26.9381 88.0923 26.8913C88.1247 26.8913 88.1733 26.8865 88.238 26.8776C88.3028 26.8688 88.3514 26.8639 88.3837 26.8639C88.4809 26.8639 88.5537 26.9744 88.5942 27.1945C88.578 27.238 88.578 27.3428 88.578 27.5089C88.5861 27.5919 88.5861 27.662 88.5861 27.7201C88.5861 27.7781 88.5942 27.8192 88.5942 27.8442C88.5942 28.3392 88.4485 28.8721 88.1571 29.4533ZM87.8495 28.8785C87.8495 28.8648 87.8414 28.8374 87.8252 28.7979C87.8009 28.8092 87.7766 28.814 87.7604 28.814C87.7281 28.814 87.6795 28.7955 87.6066 28.7568C87.5257 28.7197 87.4771 28.7004 87.4447 28.7004C87.4285 28.7004 87.3476 28.7294 87.1857 28.7866C86.9671 28.8697 86.7729 28.997 86.619 29.1696C86.4491 29.3647 86.36 29.571 86.36 29.7903C86.36 29.8879 86.3843 29.9709 86.4329 30.0386C86.4895 30.1184 86.5624 30.1579 86.6514 30.1579C86.6676 30.1579 86.6919 30.1555 86.7243 30.1499C86.7567 30.1442 86.7729 30.1418 86.789 30.1418C86.9428 30.1418 87.1614 29.9709 87.4366 29.6291C87.7119 29.2873 87.8495 29.0373 87.8495 28.8785Z" fill="#E4C80C"/>
</svg>
