<svg xmlns="http://www.w3.org/2000/svg" viewBox="0 0 148.66 28"><defs><style>.a{fill:#fff;}</style></defs><path class="a" d="M146.66,2V26H2V2H146.66m2-2H0V28H148.66V0Z"/><path class="a" d="M10.27,14.62l1-.09a2.18,2.18,0,0,0,.33,1,1.73,1.73,0,0,0,.79.61,2.94,2.94,0,0,0,1.21.24,2.85,2.85,0,0,0,1.05-.18,1.48,1.48,0,0,0,.68-.49,1.1,1.1,0,0,0,.22-.67,1.05,1.05,0,0,0-.21-.65,1.62,1.62,0,0,0-.71-.46,13.05,13.05,0,0,0-1.4-.39A6.53,6.53,0,0,1,11.69,13a2,2,0,0,1-.84-.73,1.75,1.75,0,0,1-.28-1,2,2,0,0,1,.34-1.12,2.07,2.07,0,0,1,1-.78,3.7,3.7,0,0,1,1.44-.27,3.88,3.88,0,0,1,1.54.28,2.26,2.26,0,0,1,1,.83,2.42,2.42,0,0,1,.39,1.24l-1,.08a1.58,1.58,0,0,0-.54-1.13,2.1,2.1,0,0,0-1.38-.38A2.17,2.17,0,0,0,12,10.4a1,1,0,0,0-.44.84.93.93,0,0,0,.31.7,4.14,4.14,0,0,0,1.57.56,10.3,10.3,0,0,1,1.74.5,2.42,2.42,0,0,1,1,.8,2,2,0,0,1,.33,1.12,2.16,2.16,0,0,1-.36,1.19,2.34,2.34,0,0,1-1,.86,3.52,3.52,0,0,1-1.51.31,4.54,4.54,0,0,1-1.8-.31A2.49,2.49,0,0,1,10.7,16,2.63,2.63,0,0,1,10.27,14.62Z"/><path class="a" d="M17.84,10.38V9.27h1v1.11Zm0,6.77V11.44h1v5.71Z"/><path class="a" d="M20.28,17.15V11.44h.87v.81A2.06,2.06,0,0,1,23,11.31a2.39,2.39,0,0,1,.94.19,1.39,1.39,0,0,1,.65.49,1.91,1.91,0,0,1,.3.71,5,5,0,0,1,.06.94v3.51H24V13.68a2.8,2.8,0,0,0-.11-.89.94.94,0,0,0-.4-.46,1.28,1.28,0,0,0-.68-.18,1.54,1.54,0,0,0-1.06.39A2,2,0,0,0,21.25,14v3.12Z"/><path class="a" d="M33.15,17.15v-.72a1.78,1.78,0,0,1-1.59.85,2.27,2.27,0,0,1-1.26-.38,2.46,2.46,0,0,1-.88-1,3.64,3.64,0,0,1-.32-1.55,4,4,0,0,1,.29-1.55,2.28,2.28,0,0,1,.85-1.07,2.36,2.36,0,0,1,1.28-.37,1.91,1.91,0,0,1,.91.22,2,2,0,0,1,.66.57V9.27h1v7.88Zm-3-2.85a2.47,2.47,0,0,0,.46,1.64,1.4,1.4,0,0,0,1.09.54A1.37,1.37,0,0,0,32.73,16a2.4,2.4,0,0,0,.44-1.58,2.7,2.7,0,0,0-.45-1.72,1.4,1.4,0,0,0-1.11-.55,1.35,1.35,0,0,0-1.08.53A2.58,2.58,0,0,0,30.1,14.3Z"/><path class="a" d="M35.58,10.38V9.27h1v1.11Zm0,6.77V11.44h1v5.71Z"/><path class="a" d="M39.6,17.15l-2.17-5.71h1l1.22,3.42c.14.37.26.75.37,1.15.09-.3.21-.66.36-1.09l1.27-3.48h1L40.5,17.15Z"/><path class="a" d="M47.42,15.31l1,.12a2.41,2.41,0,0,1-.88,1.36,2.94,2.94,0,0,1-3.61-.28,3,3,0,0,1-.74-2.17,3.16,3.16,0,0,1,.74-2.23,2.53,2.53,0,0,1,1.93-.8,2.45,2.45,0,0,1,1.87.78,3.11,3.11,0,0,1,.72,2.19v.26H44.19A2.19,2.19,0,0,0,44.72,16a1.61,1.61,0,0,0,1.2.5,1.44,1.44,0,0,0,.9-.28A1.84,1.84,0,0,0,47.42,15.31Zm-3.17-1.56h3.18a1.92,1.92,0,0,0-.36-1.08,1.47,1.47,0,0,0-1.2-.56,1.55,1.55,0,0,0-1.12.44A1.78,1.78,0,0,0,44.25,13.75Z"/><path class="a" d="M49.62,17.15V11.44h.87v.87a2.27,2.27,0,0,1,.62-.8,1,1,0,0,1,.62-.2,1.89,1.89,0,0,1,1,.32l-.33.89a1.38,1.38,0,0,0-.71-.21,1,1,0,0,0-.57.19,1.05,1.05,0,0,0-.36.53,3.72,3.72,0,0,0-.16,1.13v3Z"/><path class="a" d="M52.91,15.44l1-.15a1.36,1.36,0,0,0,.44.89,1.6,1.6,0,0,0,1,.3,1.5,1.5,0,0,0,1-.27.82.82,0,0,0,.32-.64.57.57,0,0,0-.28-.51,3.79,3.79,0,0,0-1-.33,9,9,0,0,1-1.47-.46,1.49,1.49,0,0,1-.63-.55,1.43,1.43,0,0,1-.21-.76,1.49,1.49,0,0,1,.65-1.25,2.12,2.12,0,0,1,.62-.28,2.73,2.73,0,0,1,.83-.12,3.28,3.28,0,0,1,1.18.2,1.6,1.6,0,0,1,.75.52,2.08,2.08,0,0,1,.33.88l-.94.13a1,1,0,0,0-.38-.68,1.31,1.31,0,0,0-.87-.25,1.56,1.56,0,0,0-1,.22.65.65,0,0,0-.29.51.52.52,0,0,0,.12.34.88.88,0,0,0,.37.26c.1,0,.39.12.86.25a10.92,10.92,0,0,1,1.43.45,1.45,1.45,0,0,1,.64.5,1.47,1.47,0,0,1,.23.83,1.61,1.61,0,0,1-.29.91,1.68,1.68,0,0,1-.81.66,2.89,2.89,0,0,1-1.2.24,2.69,2.69,0,0,1-1.7-.47A2.12,2.12,0,0,1,52.91,15.44Z"/><path class="a" d="M58.8,10.38V9.27h1v1.11Zm0,6.77V11.44h1v5.71Z"/><path class="a" d="M60.88,14.29A2.93,2.93,0,0,1,61.76,12a2.67,2.67,0,0,1,1.79-.64,2.58,2.58,0,0,1,1.93.77,3,3,0,0,1,.74,2.13A3.79,3.79,0,0,1,65.89,16a2.38,2.38,0,0,1-1,1,2.83,2.83,0,0,1-1.38.35,2.57,2.57,0,0,1-1.93-.77A3.08,3.08,0,0,1,60.88,14.29Zm1,0a2.44,2.44,0,0,0,.48,1.65,1.54,1.54,0,0,0,1.2.54,1.52,1.52,0,0,0,1.2-.55,2.47,2.47,0,0,0,.48-1.67,2.35,2.35,0,0,0-.48-1.6,1.55,1.55,0,0,0-1.2-.55,1.52,1.52,0,0,0-1.2.55A2.39,2.39,0,0,0,61.87,14.29ZM63,10.73l.71-1.5H65l-1.18,1.5Z"/><path class="a" d="M67.36,17.15V11.44h.87v.81A2.06,2.06,0,0,1,70,11.31a2.44,2.44,0,0,1,.95.19,1.39,1.39,0,0,1,.65.49,1.91,1.91,0,0,1,.3.71,6.37,6.37,0,0,1,0,.94v3.51H71V13.68a2.49,2.49,0,0,0-.12-.89.89.89,0,0,0-.4-.46,1.22,1.22,0,0,0-.67-.18,1.59,1.59,0,0,0-1.07.39A2,2,0,0,0,68.32,14v3.12Z"/><path class="a" d="M76.53,17.15V11.44h.87v.81a2.06,2.06,0,0,1,1.82-.94,2.39,2.39,0,0,1,.94.19,1.39,1.39,0,0,1,.65.49,1.76,1.76,0,0,1,.3.71,5,5,0,0,1,.06.94v3.51h-1V13.68a2.8,2.8,0,0,0-.11-.89.94.94,0,0,0-.4-.46,1.25,1.25,0,0,0-.68-.18,1.56,1.56,0,0,0-1.06.39A2,2,0,0,0,77.5,14v3.12Z"/><path class="a" d="M82.29,14.29A2.93,2.93,0,0,1,83.17,12,2.67,2.67,0,0,1,85,11.31a2.58,2.58,0,0,1,1.93.77,3,3,0,0,1,.74,2.13A3.79,3.79,0,0,1,87.3,16a2.38,2.38,0,0,1-1,1,2.83,2.83,0,0,1-1.38.35A2.57,2.57,0,0,1,83,16.51,3.08,3.08,0,0,1,82.29,14.29Zm1,0a2.44,2.44,0,0,0,.48,1.65,1.54,1.54,0,0,0,1.2.54,1.52,1.52,0,0,0,1.2-.55,2.47,2.47,0,0,0,.48-1.67,2.35,2.35,0,0,0-.48-1.6,1.55,1.55,0,0,0-1.2-.55,1.52,1.52,0,0,0-1.2.55A2.39,2.39,0,0,0,83.28,14.29Z"/><path class="a" d="M91.82,17.15V9.27h1V12.1a2.17,2.17,0,0,1,1.71-.79,2.38,2.38,0,0,1,1.1.25,1.54,1.54,0,0,1,.67.69,3.29,3.29,0,0,1,.2,1.28v3.62h-1V13.53a1.48,1.48,0,0,0-.31-1,1.18,1.18,0,0,0-.89-.33,1.54,1.54,0,0,0-.81.22A1.3,1.3,0,0,0,93,13,2.78,2.78,0,0,0,92.79,14v3.12Z"/><path class="a" d="M101.66,16.44a3.64,3.64,0,0,1-1,.65,3.12,3.12,0,0,1-1.07.19,2.11,2.11,0,0,1-1.44-.46,1.52,1.52,0,0,1-.51-1.18,1.61,1.61,0,0,1,.19-.76,1.7,1.7,0,0,1,.5-.56A2.63,2.63,0,0,1,99,14a8.08,8.08,0,0,1,.86-.14,8.55,8.55,0,0,0,1.72-.33c0-.14,0-.22,0-.26a1,1,0,0,0-.28-.83,1.59,1.59,0,0,0-1.1-.33,1.67,1.67,0,0,0-1,.24,1.42,1.42,0,0,0-.48.85l-1-.13a2.53,2.53,0,0,1,.42-1,1.86,1.86,0,0,1,.86-.57,3.63,3.63,0,0,1,1.29-.21,3.27,3.27,0,0,1,1.19.18,1.47,1.47,0,0,1,.67.43,1.55,1.55,0,0,1,.3.66,5.58,5.58,0,0,1,0,.89v1.29a14,14,0,0,0,.06,1.7,2,2,0,0,0,.25.69h-1A2.11,2.11,0,0,1,101.66,16.44Zm-.08-2.16a6.57,6.57,0,0,1-1.58.37,4.11,4.11,0,0,0-.84.19.85.85,0,0,0-.38.32.83.83,0,0,0-.14.46.81.81,0,0,0,.3.64,1.25,1.25,0,0,0,.85.26,1.93,1.93,0,0,0,1-.25,1.51,1.51,0,0,0,.64-.66,2.46,2.46,0,0,0,.15-1Z"/><path class="a" d="M104,19.34l-.1-.9a2.43,2.43,0,0,0,.55.08,1,1,0,0,0,.52-.11.81.81,0,0,0,.31-.3,4.46,4.46,0,0,0,.3-.72c0-.05,0-.13.08-.23l-2.16-5.72h1l1.19,3.31c.15.41.29.86.41,1.32a13.11,13.11,0,0,1,.4-1.3l1.22-3.33h1l-2.17,5.8a12.52,12.52,0,0,1-.55,1.3,1.82,1.82,0,0,1-.59.7,1.36,1.36,0,0,1-.79.22A1.93,1.93,0,0,1,104,19.34Z"/><path class="a" d="M111.38,19.36l.19-.82a1.83,1.83,0,0,0,.45.07.5.5,0,0,0,.44-.19,2,2,0,0,0,.15-1v-6h1v6a2.7,2.7,0,0,1-.28,1.46,1.27,1.27,0,0,1-1.16.54A2.78,2.78,0,0,1,111.38,19.36Zm1.23-9V9.27h1V10.4Z"/><path class="a" d="M118.8,17.15v-.84a2.11,2.11,0,0,1-1.81,1,2.34,2.34,0,0,1-.95-.2,1.67,1.67,0,0,1-.65-.48,1.79,1.79,0,0,1-.29-.72A4.82,4.82,0,0,1,115,15V11.44h1v3.17a5.62,5.62,0,0,0,.06,1,1,1,0,0,0,.39.6,1.23,1.23,0,0,0,.73.21,1.6,1.6,0,0,0,.82-.22,1.28,1.28,0,0,0,.54-.61,3.14,3.14,0,0,0,.15-1.11V11.44h1v5.71Z"/><path class="a" d="M125.08,15.31l1,.12a2.41,2.41,0,0,1-.88,1.36,2.94,2.94,0,0,1-3.61-.28,3,3,0,0,1-.74-2.17,3.16,3.16,0,0,1,.74-2.23,2.53,2.53,0,0,1,1.93-.8,2.45,2.45,0,0,1,1.87.78,3.11,3.11,0,0,1,.72,2.19v.26h-4.26a2.25,2.25,0,0,0,.53,1.44,1.61,1.61,0,0,0,1.2.5,1.44,1.44,0,0,0,.9-.28A1.84,1.84,0,0,0,125.08,15.31Zm-3.17-1.56h3.18a1.92,1.92,0,0,0-.36-1.08,1.47,1.47,0,0,0-1.2-.56,1.55,1.55,0,0,0-1.12.44A1.78,1.78,0,0,0,121.91,13.75Z"/><path class="a" d="M127.12,17.62l.94.14a.91.91,0,0,0,.32.63,1.62,1.62,0,0,0,1,.27,1.71,1.71,0,0,0,1-.27,1.32,1.32,0,0,0,.5-.75A6.49,6.49,0,0,0,131,16.4a2,2,0,0,1-1.58.75,2.16,2.16,0,0,1-1.82-.85,3.29,3.29,0,0,1-.65-2,3.72,3.72,0,0,1,.3-1.5,2.36,2.36,0,0,1,.86-1.07,2.29,2.29,0,0,1,1.31-.38,2.06,2.06,0,0,1,1.67.82v-.69H132v4.93a4.7,4.7,0,0,1-.27,1.89,2,2,0,0,1-.86.88,3,3,0,0,1-1.45.32,2.71,2.71,0,0,1-1.65-.46A1.52,1.52,0,0,1,127.12,17.62Zm.8-3.43a2.51,2.51,0,0,0,.44,1.64,1.47,1.47,0,0,0,2.24,0,2.37,2.37,0,0,0,.45-1.6,2.33,2.33,0,0,0-.47-1.58,1.42,1.42,0,0,0-1.12-.54,1.39,1.39,0,0,0-1.09.53A2.33,2.33,0,0,0,127.92,14.19Z"/><path class="a" d="M133.05,14.29a3,3,0,0,1,.88-2.34,2.68,2.68,0,0,1,1.8-.64,2.58,2.58,0,0,1,1.92.77,2.94,2.94,0,0,1,.75,2.13,3.79,3.79,0,0,1-.33,1.74,2.35,2.35,0,0,1-1,1,2.82,2.82,0,0,1-1.37.35,2.58,2.58,0,0,1-1.94-.77A3.08,3.08,0,0,1,133.05,14.29Zm1,0a2.5,2.5,0,0,0,.47,1.65,1.54,1.54,0,0,0,1.21.54,1.48,1.48,0,0,0,1.19-.55,2.47,2.47,0,0,0,.48-1.67,2.35,2.35,0,0,0-.48-1.6,1.54,1.54,0,0,0-1.19-.55,1.52,1.52,0,0,0-1.21.55A2.44,2.44,0,0,0,134.05,14.29Z"/></svg>