<svg xmlns="http://www.w3.org/2000/svg" xmlns:xlink="http://www.w3.org/1999/xlink" version="1.1" id="svg130" viewBox="0 0 560.224 123.785">
  <defs id="defs62">
    <linearGradient id="linear-gradient" x1="98.77" y1="111.12" x2="178.87" y2="111.12" gradientUnits="userSpaceOnUse">
      <stop offset=".34" stop-color="#61a930" id="stop4"/>
      <stop offset="1" stop-color="#bccf33" id="stop6"/>
    </linearGradient>
    <linearGradient id="linear-gradient-2" x1="-968.54" y1="-372.1" x2="-968.54" y2="-402.14" gradientTransform="matrix(0 3.07 -2.46 0 -821.99 3139.53)" gradientUnits="userSpaceOnUse">
      <stop offset=".2" stop-color="#873888" id="stop12"/>
      <stop offset=".76" stop-color="#bf88b7" id="stop14"/>
      <stop offset="1" stop-color="#dec3dc" id="stop16"/>
    </linearGradient>
    <linearGradient id="linear-gradient-3" x1="-334.22" y1="303.31" x2="-334.22" y2="274.48" gradientTransform="matrix(3.28 -1.6 1.05 2.15 985.11 -999.03)" gradientUnits="userSpaceOnUse">
      <stop offset=".17" stop-color="#48a5d8" id="stop22"/>
      <stop offset=".75" stop-color="#85c7ea" id="stop24"/>
      <stop offset="1" stop-color="#cae7f6" id="stop26"/>
    </linearGradient>
    <linearGradient id="linear-gradient-4" x1="218.77" y1="93.3" x2="150.28" y2="120.97" gradientUnits="userSpaceOnUse">
      <stop offset=".29" stop-color="#e94e1b" id="stop32"/>
      <stop offset=".75" stop-color="#ec8825" id="stop34"/>
      <stop offset="1" stop-color="#f5c6a8" id="stop36"/>
    </linearGradient>
    <linearGradient id="linear-gradient-6" x1="-1321.91" y1="-612.69" x2="-1321.91" y2="-645.5" gradientTransform="matrix(-2.78 1.51 -.83 -1.52 -4028.69 1143.2)" gradientUnits="userSpaceOnUse">
      <stop offset="0" stop-color="#5faf2d" id="stop42"/>
      <stop offset=".46" stop-color="#b1c718" id="stop44"/>
      <stop offset="1" stop-color="#d5e395" id="stop46"/>
    </linearGradient>
    <linearGradient xlink:href="#linear-gradient" id="linearGradient941" gradientUnits="userSpaceOnUse" x1="98.77" y1="111.12" x2="178.87" y2="111.12"/>
    <clipPath id="clip-path">
      <path class="cls-1" d="M157.39 138.46c.9 2 1.93 4.09 1.89 6.76-.17 12.45-12.68 34.11-25.48 43.13-15.32 10.78-32.8 3.34-36.8-7.54-2.22-6.14 1.65-6.37-2.33-17.4-3-8.39-9-9.35-11.26-14.95-5-12.4 7.79-23.23 19.27-25.24 16.91-2.96 50.39 5.48 54.71 15.24z" id="path9" fill="none"/>
    </clipPath>
    <clipPath id="clip-path-2">
      <path class="cls-1" d="M157.46 138.43c9.27-3.86 37.76-.91 58.56 16.19 6.17 5.07 10.32 18.94-1.26 28.49-3.61 3-9 4.7-15.92 4.88-3.52.09-8 1.08-13.62 3.48-8.18 3.48-11 8.17-14.84 10.57-15.65 9.8-35.64-1-36.72-13.49-2.3-26.36 15.63-46.71 23.8-50.12z" id="path19" fill="none"/>
    </clipPath>
    <clipPath id="clip-path-3">
      <path class="cls-1" d="M157.32 138.32c-6.33-13 10.86-37.35 21-43.86 5.27-3.36 21.94-8.51 32.49 3.74 3.66 4.24 1.42 9.32 5.86 16.17 5.12 7.9 10.3 8.85 13.25 12.51 9.58 11.93-.66 25.17-13.69 27.74-19.42 3.82-54.02-6.29-58.91-16.3z" id="path29" fill="none"/>
    </clipPath>
    <clipPath id="clip-path-4">
      <path class="cls-2" d="M132.85 93.3c2.57-.91 7.28-3.13 10-5.59 2.72-2.46 10.61-7.5 22.48-4.61 3.5.94 11.41 4.75 13 11.33 2.87 11.69-5.94 37.36-20.78 44-12.36 5.49-44-3.77-55.15-15.31-7.9-8.16-1.57-19.84 6.24-23.93 3.85-2 5.75-2.93 14.28-3.45a34.41 34.41 0 009.93-2.44z" id="path39" fill="url(#linear-gradient)"/>
    </clipPath>
    <clipPath id="clip-path-8">
      <path class="cls-1" d="M230 126.91c-3.08-3.67-8.16-4.62-13.28-12.54-4.43-6.84-2.21-11.92-5.85-16.17-10.6-12.33-27.26-7.12-32.56-3.76v.06c-1.57-6.65-9.55-10.47-13.07-11.43a24.62 24.62 0 00-22.39 4.62 34.37 34.37 0 01-10 5.61 34.54 34.54 0 01-10 2.4c-8.53.52-10.44 1.42-14.29 3.45-7.83 4.1-14.17 15.78-6.16 24l.18.15c-11.46 2.07-24.09 12.88-19.16 25.27 2.25 5.6 8.26 6.56 11.28 15 4 11 0 11.28 2.34 17.41 3.69 10.87 21.1 18.33 36.5 7.64 1.11 12.32 21.11 23.32 36.79 13.49 3.85-2.4 6.68-7.09 14.85-10.6a38.89 38.89 0 0113.66-3.51 25.6 25.6 0 0015.95-4.87 18.46 18.46 0 001.3-28.49h.21c12.97-2.53 23.23-15.78 13.7-27.73z" id="path49" fill="none"/>
    </clipPath>
    <radialGradient id="Degradado_sin_nombre_7" cx="158.76" cy="303.76" fx="134.549" r="64.38" gradientTransform="matrix(1 0 0 -1 0 446)" gradientUnits="userSpaceOnUse">
      <stop offset=".39" stop-color="#fff" id="stop52"/>
      <stop offset="1" stop-color="#fff" stop-opacity="0" id="stop54"/>
    </radialGradient>
    <radialGradient id="Degradado_sin_nombre_8" cx="180.2" cy="314.99" r="49.26" gradientTransform="matrix(1 0 0 -1 0 446)" gradientUnits="userSpaceOnUse">
      <stop offset=".38" stop-color="#fff" id="stop57"/>
      <stop offset="1" stop-color="#fff" stop-opacity="0" id="stop59"/>
    </radialGradient>
    <radialGradient xlink:href="#Degradado_sin_nombre_7" id="radialGradient943" gradientUnits="userSpaceOnUse" gradientTransform="matrix(1 0 0 -1 0 446)" cx="158.76" cy="303.76" fx="134.549" r="64.38"/>
    <radialGradient xlink:href="#Degradado_sin_nombre_7" id="radialGradient945" gradientUnits="userSpaceOnUse" gradientTransform="matrix(1 0 0 -1 0 446)" cx="158.76" cy="303.76" fx="134.549" r="64.38"/>
    <style id="style2">
      .cls-1{fill:none}.cls-2{fill:url(#linear-gradient)}.cls-3{fill:#e94e1b}.cls-7{clip-path:url(#clip-path)}.cls-9{clip-path:url(#clip-path-2)}.cls-11{clip-path:url(#clip-path-3)}.cls-15{fill:#4563ab}
    </style>
  </defs>
  <g id="Capa_1" data-name="Capa 1" transform="translate(-82.296 -82.116)">
    <path class="cls-3" d="M274.39 204.61c-11.34 0-19.37-5.66-21.48-15.14-.54-2.43-.79-7.09-.74-13.86l.15-54.58c0-8.57-.2-15.49-2.58-20l-1.46-2.73 25.35-7.72.87 2.15c1.56 3.82 3.78 14.47 3.73 23.69l-.23 54.21c-.06 7.77.09 11.7.51 13.59.42 1.89 1.12 2.15 2.38 2.15a4.78 4.78 0 001.25-.09l2.59-1.07 4.94 16.38-2.2.85a37.78 37.78 0 01-13.08 2.17zm75.17 1.19l-1.2-1.29a31.3 31.3 0 01-4.86-7 29.39 29.39 0 01-19.5 7.24c-12.95 0-22.43-6.46-24.74-16.85a53.42 53.42 0 01-1.12-12.15l.05-49 25.23-4.48-.18 50.07a49.39 49.39 0 00.62 9.3c.46 2.08 2.47 3.58 3.61 3.58 4.83 0 9.84-5.1 11.73-8.89l.19-49.11 24.7-4.86-.17 59c0 4.65 1.92 10.44 4.33 13.17l2.38 2.68zm61.95-1.05c-18.26 0-30.92-9.9-34.76-27.15-3.92-17.61.33-35.54 10.8-45.68 6.71-6.52 14.52-9.43 25.31-9.43a37.71 37.71 0 0124.22 9.34l1.81 1.56-12.25 16.06-2-1.77c-3.43-3-7.67-4.81-11.07-4.81a7.5 7.5 0 00-6.55 3.25c-3.55 5-5.65 19-3.12 30.38.89 4.05 3.22 8.87 9.18 8.87 4.3 0 8.52-2 13.67-6.64l2-1.79 12.66 15.88-1.86 1.59c-8.31 7.15-16.95 10.34-28.04 10.34zm115.59-1.86l-32-43.94 26.65-34.32H490l-15.65 25.88.13-29.18c.08-13.43-1.33-23.92-3.84-28.77l-1-1.89-24.54 7.66 1.27 2.65c1.9 4 2.73 9.83 2.72 19l-.36 82.87h25.41l.15-35.93 22.45 35.93zm5-76.62l-.26 76.62h25.4l.21-80.38zm108.1 62.55c-3.67-3-5.11-6.52-5.15-12.34l.05-27.74a140.68 140.68 0 011-17.6l.29-1.85-1.69-.82c-6.84-3.35-17-5.27-28-5.27-13.83 0-23.18 3.81-30.34 12.35-8.49 10.11-11.4 27-7.61 44.06 3.63 16.3 13.94 25.28 29 25.28 7.54 0 13.4-2.2 18.18-6.88a20.62 20.62 0 007.19 6.85l1.53.84 17.87-14.93zM610 175.94c-.88 4.37-5.11 9.15-9.93 9.15-2.12 0-4.31-.58-5.83-7.45-2.14-9.59-1.89-23.19 2.2-29.3 3.41-5 6-5.19 10.76-5.19a15.3 15.3 0 013.16.42zm-65.25-56.78c-8.36 0-15.16-6.44-15.16-14.36 0-7.92 6.8-14.36 15.16-14.36S560 96.88 560 104.8c0 7.92-6.85 14.36-15.21 14.36z" id="path66" fill="#e94e1b"/>
  </g>
  <g id="Capa_3" data-name="Capa 3" transform="translate(-82.296 -82.116)">
    <g id="Trébol">
      <path d="M132.85 93.3c2.57-.91 7.28-3.13 10-5.59 2.72-2.46 10.61-7.5 22.48-4.61 3.5.94 11.41 4.75 13 11.33 2.87 11.69-5.94 37.36-20.78 44-12.36 5.49-44-3.77-55.15-15.31-7.9-8.16-1.57-19.84 6.24-23.93 3.85-2 5.75-2.93 14.28-3.45a34.41 34.41 0 009.93-2.44z" id="path69" fill="#5faf2d"/>
      <path class="cls-3" d="M157.32 138.32c-6.33-13 10.86-37.35 21-43.86 5.27-3.36 21.94-8.51 32.49 3.74 3.66 4.24 1.42 9.32 5.86 16.17 5.12 7.9 10.3 8.85 13.25 12.51 9.58 11.93-.66 25.17-13.69 27.74-19.42 3.82-54.02-6.29-58.91-16.3z" id="path71" fill="#e94e1b"/>
      <path d="M157.46 138.43c9.27-3.86 37.76-.91 58.56 16.19 6.17 5.07 10.32 18.94-1.26 28.49-3.61 3-9 4.7-15.92 4.88-3.52.09-8 1.08-13.62 3.48-8.18 3.48-11 8.17-14.84 10.57-15.65 9.8-35.64-1-36.72-13.49-2.3-26.36 15.63-46.71 23.8-50.12z" id="path73" fill="#48a5d8"/>
      <path d="M157.39 138.46c.9 2 1.93 4.09 1.89 6.76-.17 12.45-12.68 34.11-25.48 43.13-15.32 10.78-32.8 3.34-36.8-7.54-2.22-6.14 1.65-6.37-2.33-17.4-3-8.39-9-9.35-11.26-14.95-5-12.4 7.79-23.23 19.27-25.24 16.91-2.96 50.39 5.48 54.71 15.24z" id="path75" fill="#873888"/>
      <g class="cls-7" clip-path="url(#clip-path)" id="g79">
        <path transform="rotate(-21.21 130.744 170.339)" id="rect77" fill="url(#linear-gradient-2)" d="M93.77 150.31h73.92v40.06H93.77z"/>
      </g>
      <g class="cls-9" clip-path="url(#clip-path-2)" id="g83">
        <path id="polygon81" fill="url(#linear-gradient-3)" d="M156.74 137.07l42.84-20.93L229.7 178l-43.06 21.29z"/>
      </g>
      <g class="cls-11" clip-path="url(#clip-path-3)" id="g87">
        <path id="polygon85" fill="url(#linear-gradient-4)" d="M143.21 103.46l14.18 35 28.03-11.36 27.92-11.31 12.34-5.07L212.19 77z"/>
      </g>
      <path class="cls-2" d="M132.85 93.3c2.57-.91 7.28-3.13 10-5.59 2.72-2.46 10.61-7.5 22.48-4.61 3.5.94 11.41 4.75 13 11.33 2.87 11.69-5.94 37.36-20.78 44-12.36 5.49-44-3.77-55.15-15.31-7.9-8.16-1.57-19.84 6.24-23.93 3.85-2 5.75-2.93 14.28-3.45a34.41 34.41 0 009.93-2.44z" id="path89" fill="url(#linearGradient941)"/>
      <g clip-path="url(#clip-path-4)" id="g93">
        <path id="polygon91" fill="url(#linear-gradient-6)" d="M193.93 121.98l-36.17 17.07-25.08-48.42 35.98-17.39z"/>
      </g>
      <g class="cls-9" clip-path="url(#clip-path-2)" id="g99">
        <path class="cls-15" d="M158 139.8c-7.14-14.64 12.25-42.14 23.75-49.48 5.94-3.81 24.74-9.62 36.66 4.2 4.13 4.79 1.6 10.53 6.61 18.25 5.78 8.92 11.62 10 14.94 14.12 10.82 13.46-.74 28.41-15.44 31.3-21.95 4.32-60.99-7.09-66.52-18.39z" id="path95" fill="#4563ab"/>
        <path class="cls-15" d="M157.8 138.52c1 2.38 2.26 4.82 2.22 8-.2 14.69-15 40.25-30.08 50.9-18.08 12.73-38.76 3.94-43.4-8.9-2.61-7.25 1.95-7.52-2.75-20.54-3.57-9.89-10.64-11-13.28-17.64-5.84-14.63 9.2-27.42 22.75-29.79 19.92-3.55 59.43 6.45 64.54 17.97z" id="path97" fill="#4563ab"/>
      </g>
      <g class="cls-11" clip-path="url(#clip-path-3)" id="g103">
        <path d="M128.17 84.92c3.06-1.09 8.68-3.73 11.9-6.68 3.22-2.95 12.67-8.95 26.85-5.5 4.19 1.12 13.64 5.68 15.56 13.53 3.44 14-7.09 44.63-24.82 52.51-14.75 6.55-52.51-4.51-65.86-18.29-9.44-9.75-1.88-23.69 7.45-28.59 4.59-2.4 6.86-3.49 17.06-4.11a41.55 41.55 0 0011.86-2.87z" id="path101" fill="#db371b"/>
      </g>
      <g class="cls-7" clip-path="url(#clip-path)" id="g107">
        <path d="M128.17 84.92c3.06-1.09 8.68-3.73 11.9-6.68 3.22-2.95 12.67-8.95 26.85-5.5 4.19 1.12 13.64 5.68 15.56 13.53 3.44 14-7.09 44.63-24.82 52.51-14.75 6.55-52.51-4.51-65.86-18.29-9.44-9.75-1.88-23.69 7.45-28.59 4.59-2.4 6.86-3.49 17.06-4.11a41.55 41.55 0 0011.86-2.87z" id="path105" fill="#662d86"/>
      </g>
      <path d="M178.34 94.48c-10.19 6.54-27.34 30.88-21 43.84a.57.57 0 01.08.13.94.94 0 01.15-.06c14.8-6.59 23.6-32.19 20.77-43.91z" id="path109" fill="#6d7b31"/>
      <path d="M159.28 145.22c0-2.67-1-4.74-1.88-6.76-8.19 3.48-26 23.74-23.75 50l.15-.09c12.8-9.04 25.31-30.7 25.48-43.15z" id="path111" fill="#806faf"/>
      <path d="M216.06 154.65c-20.8-17.1-49.29-20.05-58.56-16.19h-.05c5.07 9.93 39.21 19.89 58.61 16.19z" id="path113" fill="#a85130"/>
      <path d="M157.39 138.45c-4.34-9.76-37.8-18.19-54.68-15.23h-.13c11.27 11.44 42.42 20.55 54.81 15.23z" id="path115" fill="#798f52"/>
      <g id="Transparencia_Iluminacion" data-name="Transparencia Iluminacion">
        <g clip-path="url(#clip-path-8)" id="g125">
          <g id="g123" opacity=".4">
            <path d="M235.44 142.87a80.72 80.72 0 10-80.72 80.71 80.71 80.71 0 0080.72-80.71z" id="path117" fill="url(#radialGradient943)"/>
            <path d="M235.44 142.87a80.72 80.72 0 10-80.72 80.71 80.71 80.71 0 0080.72-80.71z" id="path119" style="isolation:isolate" opacity=".3" fill="url(#radialGradient945)"/>
            <path d="M245.42 163.88a80.75 80.75 0 10-80.78 80.72h.06a80.72 80.72 0 0080.72-80.72z" id="path121" style="isolation:isolate" opacity=".4" fill="url(#Degradado_sin_nombre_8)"/>
          </g>
        </g>
      </g>
    </g>
  </g>
</svg>
