<svg xmlns="http://www.w3.org/2000/svg" viewBox="0 0 27.662 4.61">
  <path fill="#8dc640" d="M27.157.35C26.805.117 26.272 0 25.572 0h-1.831l-.681 3.564h-2.4l.154-.808h1.446l.172-.909-1.445.003.155-.805h1.488L22.828 0h-3.023l-.647 3.382H18.05L18.7 0h-1.58l-.647 3.382h-1.08L16.042 0h-1.578l-.683 3.565h-2.416l.152-.809h1.452l.17-.903-1.449-.001.154-.807h1.505L13.547 0h-9.42L3.59 2.825 2.522 0H.882L0 4.61h1.566L2.1 1.708 3.137 4.61h5.612l.682-3.565h.878L9.627 4.61h14.767l.427-2.25.694 2.25h1.565l-.717-1.839.164-.034c.363-.075.643-.235.839-.476.198-.243.296-.554.296-.93 0-.435-.164-.756-.505-.98zM7.386 3.564H4.988l.155-.808h1.504l.17-.911H5.329l.144-.8h2.394zm18.48-1.552c-.157.105-.386.158-.698.158h-.31l.238-1.237h.228c.259 0 .448.04.579.121a.48.48 0 0 1 .222.432c0 .29-.14.446-.26.526z"/>
</svg>
