<svg xmlns="http://www.w3.org/2000/svg" viewBox="0 0 16.274 5.256">
  <path fill="#1a1f71" d="M8.058.093L6.97 5.176H5.655L6.743.093h1.315zm5.532 3.282l.692-1.909.399 1.909zm1.468 1.8h1.216L15.211.094H14.09a.599.599 0 0 0-.56.372l-1.974 4.71h1.382l.274-.758h1.687l.159.759zm-3.433-1.659c.006-1.341-1.854-1.415-1.842-2.015.004-.182.178-.376.557-.426a2.487 2.487 0 0 1 1.297.228l.23-1.078A3.544 3.544 0 0 0 10.639 0c-1.3 0-2.214.69-2.222 1.68-.008.732.654 1.14 1.15 1.384.514.249.686.409.683.631-.003.341-.409.492-.786.498-.662.01-1.045-.179-1.35-.321l-.24 1.114c.308.14.875.263 1.463.27 1.381 0 2.285-.683 2.29-1.74zM6.179.093l-2.13 5.083H2.657L1.609 1.119C1.546.87 1.49.78 1.297.673.981.5.46.34 0 .24L.031.093h2.238c.285 0 .541.19.606.518l.554 2.941L4.797.092z"/>
</svg>
