<svg xmlns="http://www.w3.org/2000/svg" viewBox="0 0 27.482 4.819">
  <g fill="none">
    <path fill="#231f20" d="M11.94 3.22V2.216c0-.379-.24-.634-.63-.637a.62.62 0 0 0-.563.285.588.588 0 0 0-.529-.285.53.53 0 0 0-.468.238v-.2H9.4V3.22h.352v-.888c0-.278.154-.426.392-.426.238 0 .349.151.349.423v.891h.35v-.888c0-.278.16-.426.392-.426s.352.151.352.423v.891h.353zm5.21-1.602h-.57v-.486h-.352v.486h-.326v.318h.326v.73c0 .373.143.594.556.594a.82.82 0 0 0 .435-.124l-.1-.298a.643.643 0 0 1-.308.09c-.174 0-.232-.107-.232-.267v-.725h.57zm2.972-.04a.473.473 0 0 0-.422.235v-.195h-.345V3.22h.349v-.898c0-.268.113-.412.341-.412a.57.57 0 0 1 .219.04l.107-.329a.745.745 0 0 0-.249-.043zm-4.495.167a1.198 1.198 0 0 0-.653-.167c-.406 0-.67.195-.67.512 0 .262.194.423.553.473l.164.023c.19.027.282.077.282.168 0 .124-.127.194-.365.194a.854.854 0 0 1-.536-.167l-.159.271a1.156 1.156 0 0 0 .694.208c.463 0 .731-.218.731-.522 0-.282-.211-.43-.56-.48l-.163-.023c-.151-.02-.272-.05-.272-.157 0-.118.114-.188.305-.188.176.003.348.05.5.137l.15-.282zm9.337-.167a.473.473 0 0 0-.422.235v-.195h-.345V3.22h.348v-.898c0-.268.114-.412.342-.412a.57.57 0 0 1 .218.04l.108-.329a.745.745 0 0 0-.249-.043zm-4.49.841c0 .486.339.841.855.841.21.01.415-.058.576-.191l-.167-.282a.704.704 0 0 1-.419.144c-.278 0-.482-.205-.482-.513 0-.308.204-.509.482-.512a.704.704 0 0 1 .419.144l.167-.282a.84.84 0 0 0-.576-.191c-.516 0-.854.355-.854.84v.002zm3.265 0v-.803h-.349v.195a.608.608 0 0 0-.506-.235c-.449 0-.803.352-.803.841 0 .49.352.841.803.841a.608.608 0 0 0 .506-.235v.195h.35v-.799zm-1.297 0c0-.282.184-.513.486-.513.288 0 .482.222.482.513 0 .291-.194.513-.482.513-.302 0-.486-.232-.486-.513zm-4.207-.841c-.468 0-.797.342-.797.841 0 .51.342.841.82.841a.974.974 0 0 0 .658-.225l-.17-.258a.764.764 0 0 1-.469.167c-.225 0-.43-.103-.48-.392h1.19c.004-.043.007-.087.007-.134 0-.499-.312-.84-.76-.84h.001zm-.006.312c.224 0 .368.14.405.389h-.83c.037-.232.177-.39.425-.39zm8.743.529V.974h-.349v.838a.608.608 0 0 0-.506-.235c-.449 0-.803.352-.803.841 0 .49.352.842.803.842a.608.608 0 0 0 .506-.235v.194h.349zm.407.653a.102.102 0 0 1 .096.141.103.103 0 0 1-.096.063.104.104 0 0 1-.096-.063.1.1 0 0 1 .055-.133.105.105 0 0 1 .043-.008zm0 .181a.076.076 0 0 0 .056-.023.08.08 0 0 0-.025-.13.077.077 0 0 0-.03-.005.08.08 0 0 0-.057.135.08.08 0 0 0 .058.023zm.007-.127a.043.043 0 0 1 .028.008c.006.005.01.013.01.022a.026.026 0 0 1-.008.02.038.038 0 0 1-.023.009l.031.035H27.4l-.028-.035h-.01v.035h-.02v-.094zm-.024.017v.026h.024a.023.023 0 0 0 .012 0 .01.01 0 0 0 .005-.01.01.01 0 0 0-.005-.01.023.023 0 0 0-.012 0zm-1.686-.724c0-.282.184-.513.486-.513.289 0 .483.222.483.513 0 .291-.194.513-.483.513-.302 0-.486-.232-.486-.513zm-11.771 0v-.803h-.349v.195a.608.608 0 0 0-.504-.233c-.449 0-.803.352-.803.841 0 .49.352.841.803.841a.608.608 0 0 0 .506-.235v.194h.349l-.002-.8zm-1.297 0c0-.282.184-.513.486-.513.288 0 .482.222.482.513 0 .291-.194.513-.482.513-.302 0-.486-.231-.486-.513z"/>
    <path fill="#ff5f00" d="M2.844.514h2.108v3.789H2.844z"/>
    <path fill="#eb001b" d="M2.978 2.41a2.405 2.405 0 0 1 .92-1.894 2.41 2.41 0 1 0 0 3.788 2.405 2.405 0 0 1-.92-1.894z"/>
    <path fill="#f79e1b" d="M7.796 2.41a2.41 2.41 0 0 1-3.898 1.894 2.41 2.41 0 0 0 0-3.789A2.41 2.41 0 0 1 7.796 2.41zm-.231 1.529V3.83h.031v-.021h-.078v.022h.031v.109zm.154 0v-.131H7.7L7.67 3.9l-.028-.093h-.024v.131h.014V3.84l.026.086h.018l.026-.086v.1z"/>
  </g>
</svg>
