<svg xmlns="http://www.w3.org/2000/svg" viewBox="0 0 25.097 4.457">
  <path fill="#008abd" d="M3.27 1.877c.003-.2.045-.354.128-.458a.556.556 0 0 1 .363-.158h.781c.345.003.52.2.526.593V3.06a.51.51 0 0 1-.156.362.49.49 0 0 1-.357.163h-.739v.87H3.27V1.878zm1.25.113c-.002-.09-.043-.138-.123-.14h-.425c-.101.006-.153.063-.156.172v.803c.003.112.06.17.172.173h.39c.04 0 .074-.016.101-.048a.117.117 0 0 0 .042-.094v-.865zm2.243-.014c.003-.087-.046-.13-.147-.127h-1.1v-.588h1.24c.36.006.543.189.55.55v1.23a.587.587 0 0 1-.137.386.453.453 0 0 1-.358.159h-.749c-.364-.003-.549-.178-.555-.524v-.475c.003-.363.18-.547.53-.553h.726v-.058zm-.71.905c0 .034.015.06.045.08a.138.138 0 0 0 .099.037h.42c.094 0 .144-.039.146-.117v-.164c0-.09-.05-.135-.15-.135h-.416c-.055 0-.093.01-.114.028-.02.02-.03.063-.03.125zm2.787.987a.172.172 0 0 0 .111-.048.126.126 0 0 0 .044-.094v-.14h-.7a.546.546 0 0 1-.218-.036.503.503 0 0 1-.172-.122.593.593 0 0 1-.118-.195.633.633 0 0 1-.038-.235V1.26h.547v1.55c0 .125.048.187.146.187h.386a.166.166 0 0 0 .119-.048.124.124 0 0 0 .048-.098v-1.59h.542v2.561a.743.743 0 0 1-.139.457.461.461 0 0 1-.373.177H7.749v-.589H8.84m1.126-.87h.974c.09-.003.135-.04.138-.112v-.053a.124.124 0 0 0-.013-.051c-.022-.044-.048-.066-.08-.066h-.483a.526.526 0 0 1-.368-.155.45.45 0 0 1-.16-.339v-.438c.005-.343.183-.517.532-.523h1.13v.588h-.957c-.113 0-.169.037-.169.109v.056c0 .075.058.112.173.112h.481a.443.443 0 0 1 .329.155c.092.101.14.222.143.361v.43a.58.58 0 0 1-.159.36.446.446 0 0 1-.152.123.602.602 0 0 1-.216.031H9.966v-.588m3.315-1.021c.002-.088-.047-.13-.148-.127h-1.1v-.59h1.24c.36.007.543.19.549.55v1.231a.59.59 0 0 1-.137.386.451.451 0 0 1-.356.159h-.75c-.364-.003-.55-.178-.554-.524v-.475c.002-.363.178-.547.528-.553h.728v-.058zm-.71.904c0 .034.014.06.044.08a.137.137 0 0 0 .099.037h.42c.095 0 .144-.039.147-.117v-.164c0-.09-.051-.135-.152-.135h-.415c-.055 0-.093.01-.114.028-.02.02-.03.063-.03.125zM14.266.927a.495.495 0 0 1 .169-.381.61.61 0 0 1 .418-.15h.347v.568h-.21c-.116.003-.175.061-.177.173v.124h.387v.59h-.387v1.736h-.547V.927m1.811 1.87v.037c0 .047.012.084.036.111.017.035.04.053.071.053h1.123v.588h-1.194a.787.787 0 0 1-.254-.032.457.457 0 0 1-.175-.11.495.495 0 0 1-.122-.192.888.888 0 0 1-.034-.27l-.005-1.178c.006-.356.184-.537.532-.543h.737c.34.006.513.194.518.563v.465zm.677-.831v-.014a.093.093 0 0 0-.035-.075.155.155 0 0 0-.094-.028h-.38a.163.163 0 0 0-.12.044.126.126 0 0 0-.056.107v.236zm1.713 1.62a1.072 1.072 0 0 1-.227-.023.475.475 0 0 1-.216-.105.546.546 0 0 1-.156-.23.835.835 0 0 1-.044-.284V1.846a.75.75 0 0 1 .025-.236.496.496 0 0 1 .116-.2.496.496 0 0 1 .206-.137.91.91 0 0 1 .233-.027h.838v.138h-.818a.557.557 0 0 0-.341.093c-.085.068-.128.185-.128.35v1.098c0 .078.011.153.033.225a.458.458 0 0 0 .116.189c.06.047.12.077.177.089.06.014.125.02.194.02h.78v.138h-.788m3.06-.633c0 .088-.007.166-.018.234a.536.536 0 0 1-.109.214.538.538 0 0 1-.426.185h-.653a.562.562 0 0 1-.414-.159c-.109-.104-.164-.25-.164-.436v-.353c.006-.4.195-.604.57-.614H21.4V1.87a.552.552 0 0 0-.106-.335.332.332 0 0 0-.156-.126.776.776 0 0 0-.205-.025h-1.186v-.137h1.125c.103 0 .196.008.28.023a.398.398 0 0 1 .227.159c.1.135.15.293.148.47zm-.13-.791h-1.099a.409.409 0 0 0-.309.128.487.487 0 0 0-.114.342v.35c0 .069.007.13.02.187a.29.29 0 0 0 .103.156.47.47 0 0 0 .315.123h.665c.278-.003.418-.156.418-.46zm1.357-.779c-.304.006-.454.18-.449.523v1.68h-.13v-1.68c-.006-.44.194-.66.6-.66h.146v.138h-.167m2.343 1.552c-.012.443-.236.66-.672.651h-.485c-.102 0-.194-.009-.275-.027a.52.52 0 0 1-.24-.16.544.544 0 0 1-.11-.227.906.906 0 0 1-.026-.256v-1c.006-.45.222-.674.65-.67h1.027v-.76h.13zm-.13-1.552H23.93a.766.766 0 0 0-.202.026.353.353 0 0 0-.18.12.416.416 0 0 0-.104.177.618.618 0 0 0-.024.214v1.07c0 .179.049.3.149.365a.748.748 0 0 0 .366.093h.452c.169 0 .307-.04.413-.123.107-.077.162-.21.165-.4z"/>
  <path fill="#d9222a" d="M.235 1.173a.638.638 0 0 1 .128-.045.84.84 0 0 1 .813-.69c.4 0 .733.295.812.69a.587.587 0 0 1 .304.154 1.316 1.316 0 0 0-.008-.218C2.233.468 1.756 0 1.174 0 .575 0 .088.497.062 1.12a1.76 1.76 0 0 0-.002.167.7.7 0 0 1 .175-.114zm1.59.088H.492a.469.469 0 0 0-.2.048.551.551 0 0 0-.163.11c-.083.104-.125.257-.128.458V2.97c.003.201.045.353.128.457a.553.553 0 0 0 .363.16h1.335c.344-.004.52-.202.525-.594V1.854c-.005-.392-.18-.59-.525-.593z"/>
</svg>
