<svg xmlns="http://www.w3.org/2000/svg" viewBox="0 0 19.516 5.184">
  <path fill="#009cde" d="M13.17 0H11.65a.21.21 0 0 0-.208.178l-.614 3.88a.126.126 0 0 0 .125.146h.779a.147.147 0 0 0 .146-.125l.174-1.1a.21.21 0 0 1 .208-.177h.48c1 0 1.578-.482 1.728-1.439.068-.418.003-.746-.193-.976C14.06.134 13.677 0 13.169 0zm.174 1.417c-.082.544-.499.544-.901.544h-.23l.162-1.015a.126.126 0 0 1 .124-.106h.105c.275 0 .533 0 .667.155.08.093.104.232.073.422z"/>
  <path fill="#003087" d="M2.342 0H.824a.21.21 0 0 0-.209.178l-.613 3.88a.126.126 0 0 0 .124.146h.725a.21.21 0 0 0 .209-.178l.165-1.047a.21.21 0 0 1 .209-.177h.48c1 0 1.577-.482 1.728-1.439.068-.418.003-.746-.194-.976C3.232.134 2.85 0 2.342 0zm.175 1.417c-.083.544-.5.544-.902.544h-.229L1.547.946A.126.126 0 0 1 1.672.84h.105c.274 0 .533 0 .666.155.08.093.104.232.074.422zM6.879 1.4h-.727a.126.126 0 0 0-.125.106l-.032.203-.05-.073c-.158-.228-.509-.304-.86-.304-.802 0-1.488.606-1.622 1.457-.07.425.03.83.27 1.114.223.26.54.368.916.368.648 0 1.007-.415 1.007-.415l-.033.202a.126.126 0 0 0 .125.146h.655a.21.21 0 0 0 .208-.178l.393-2.48A.126.126 0 0 0 6.88 1.4zM5.866 2.81a.81.81 0 0 1-.82.692c-.211 0-.38-.067-.489-.195-.107-.127-.148-.308-.113-.51.065-.41.4-.697.814-.697.207 0 .374.069.485.198.111.13.155.312.123.512z"/>
  <path fill="#009cde" d="M17.707 1.4h-.727a.126.126 0 0 0-.125.106l-.032.203-.05-.073c-.158-.228-.51-.304-.86-.304-.803 0-1.489.606-1.622 1.457-.07.425.029.83.27 1.114.222.26.539.368.916.368.647 0 1.006-.415 1.006-.415l-.032.202a.126.126 0 0 0 .125.146h.654a.21.21 0 0 0 .209-.178l.393-2.48a.126.126 0 0 0-.125-.146zm-1.013 1.41a.81.81 0 0 1-.82.692c-.212 0-.38-.067-.489-.195-.107-.127-.148-.308-.114-.51.066-.41.4-.696.815-.696.206 0 .374.068.485.197.11.13.155.312.123.512z"/>
  <path fill="#003087" d="M10.75 1.4h-.73a.212.212 0 0 0-.174.092l-1.008 1.48L8.41 1.55a.211.211 0 0 0-.202-.15H7.49a.126.126 0 0 0-.12.167l.805 2.354-.757 1.064a.126.126 0 0 0 .104.2h.73a.212.212 0 0 0 .173-.091l2.43-3.496a.126.126 0 0 0-.104-.198"/>
  <path fill="#009cde" d="M18.564.107l-.623 3.95a.126.126 0 0 0 .124.147h.627a.21.21 0 0 0 .208-.178l.615-3.88A.126.126 0 0 0 19.39 0h-.701a.126.126 0 0 0-.125.107"/>
</svg>
