<svg xmlns="http://www.w3.org/2000/svg" viewBox="0 0 14.273 4.929">
  <path fill="#862165" d="M11.35.484L12.538.27v4.61H11.35zm1.735 0V4.88h1.188V.27zM9.658 4.88h1.189V1.508H9.658v3.37zM1.806 1.984c-.15-.01-.498-.032-.498-.349 0-.382.501-.382.689-.382.33 0 .758.099 1.063.191 0 0 .17.061.315.123l.014.004V.525L3.37.52C3.01.393 2.59.27 1.814.27.474.27 0 1.059 0 1.735c0 .39.165 1.306 1.699 1.412.13.008.475.028.475.355 0 .27-.282.43-.758.43-.52 0-1.026-.135-1.332-.262v1.077c.459.122.977.182 1.584.182 1.31 0 1.896-.746 1.896-1.486 0-.838-.656-1.383-1.758-1.458zm7.183-.526c-1.098.036-1.656.534-1.656 1.524V4.88h1.198V3.332c0-.593.077-.847.773-.871v-.985c-.117-.026-.315-.018-.315-.018zm-3.223.046c-.027.067-.217.61-.677 1.174V.269L3.863.515v4.364h1.226v-1.35c.355.54.53 1.35.53 1.35h1.469c-.146-.61-.78-1.737-.78-1.737.57-.73.82-1.51.86-1.639H5.766zm4.486-.32a.589.589 0 0 0 .586-.592.59.59 0 0 0-.586-.592.59.59 0 0 0-.585.592c0 .327.262.592.585.592z"/>
</svg>
