<svg xmlns="http://www.w3.org/2000/svg" viewBox="0 0 21.746 6.458">
  <path d="M10.744 2.303a.335.335 0 00-.337.33v2.481a.336.336 0 00.337.337.336.336 0 00.337-.337V2.633c0-.18-.15-.33-.337-.33m0-1.239a.377.377 0 00-.379.379c0 .21.169.384.379.384s.379-.174.379-.384a.377.377 0 00-.379-.378m3.28 1.561c0-.209-.167-.288-.312-.288h-1.664a.29.29 0 00-.294.289c0 .162.132.294.294.294h1.094l-1.418 1.971a.354.354 0 00-.066.198.32.32 0 00.307.325h1.766a.295.295 0 00.294-.295.291.291 0 00-.294-.294h-1.19l1.388-1.928a.428.428 0 00.096-.271M9.118 4.189c0 .409-.181.66-.584.66-.409 0-.582-.251-.582-.66V2.921h.611c.493 0 .555.27.555.571zm.666-.709c0-.697-.368-1.142-1.216-1.142h-.616v-.937a.334.334 0 00-.331-.336.335.335 0 00-.336.336V4.19c0 .69.372 1.262 1.25 1.262.87 0 1.25-.571 1.25-1.262v-.697zm6.862-1.177a.336.336 0 00-.336.336v1.55c0 .409-.18.66-.584.66-.408 0-.582-.251-.582-.66V2.64a.334.334 0 00-.33-.336.336.336 0 00-.337.336v1.55c0 .69.373 1.262 1.25 1.262.87 0 1.25-.571 1.25-1.262V2.64a.334.334 0 00-.33-.336m5.098 1.261c0-.69-.32-1.262-1.197-1.262-.39 0-.671.116-.862.305-.19-.19-.471-.305-.865-.305-.87 0-1.196.571-1.196 1.262v1.55c0 .187.15.337.33.337a.336.336 0 00.337-.337v-1.55c0-.408.128-.66.53-.66.408 0 .53.252.53.66v1.55c0 .187.15.337.33.337a.336.336 0 00.337-.337v-1.55c0-.408.127-.66.53-.66.408 0 .53.252.53.66v1.55c0 .187.15.337.33.337a.336.336 0 00.337-.337zM1.174 2.306a.526.526 0 00.735-.117l.618-.851a.526.526 0 00-.116-.735.525.525 0 00-.735.116l-.62.851a.527.527 0 00.118.736m2.823-1.2a.525.525 0 00-.735.115L.788 4.627a.526.526 0 10.851.619L4.113 1.84a.525.525 0 00-.116-.735M.94.835A.527.527 0 00.825.1a.527.527 0 00-.736.117.527.527 0 00.851.619m3.756 4.679a.527.527 0 10-.618.852.527.527 0 00.618-.852M3.728 4.16a.526.526 0 00-.735.117l-.619.852a.527.527 0 10.852.618l.619-.851a.527.527 0 00-.117-.736" fill="#302f36"/>
</svg>
