<svg xmlns="http://www.w3.org/2000/svg" viewBox="0 0 107.59 120"><defs></defs><g id="Capa_2" data-name="Capa 2"><g id="Iconos"><path fill="#000" d="M105.58,34.71H74.79c7.31-2.15,16.15-5.94,18.7-12.13,1.87-4.52.38-9.53-4.41-14.89C83.49,1.43,78-1,72.71.39,62.93,3,57.1,18.89,54.44,28.45,51.77,18.89,46,3,36.17.39,30.9-1,25.39,1.43,19.79,7.69,15,13.05,13.52,18.06,15.38,22.58c2.55,6.19,11.4,10,18.71,12.13H2a2,2,0,0,0-2,2V62a2,2,0,0,0,2,2h4.6v54a2,2,0,0,0,2,2H99a2,2,0,0,0,2-2V64h4.6a2,2,0,0,0,2-2V36.68A2,2,0,0,0,105.58,34.71ZM97,64v52.07h-29V64Zm6.61-25.32V60H67.93V38.66ZM89.77,21.1c-1.41,3.41-5.94,6.42-13.48,9A103.22,103.22,0,0,1,57.1,34.21C58.25,29.27,64,6.84,73.76,4.2h0c3.65-1,7.81,1.08,12.29,6.1C89.77,14.44,91,18.08,89.77,21.1ZM63.91,38.66v77.39H44.79V38.66ZM33.28,4a7.07,7.07,0,0,1,1.83.24C39,5.23,42.62,9.49,46,16.87a95.49,95.49,0,0,1,5.75,17.34,101.57,101.57,0,0,1-19.19-4.15c-7.53-2.53-12.07-5.55-13.47-9-1.25-3,0-6.66,3.7-10.8S30.09,4,33.28,4Zm7.49,60v52.07H10.63V64Zm0-25.32V60H4V38.66Z"/></g></g></svg>