<svg xmlns="http://www.w3.org/2000/svg" viewBox="0 0 92 92"><defs><style>.cls-1{fill:#fff;}.cls-2{fill:#ea5b0c;}</style></defs><g id="Capa_2" data-name="Capa 2"><g id="iconos-circulo"><circle class="cls-1" cx="46" cy="46" r="46"/><g id="roulette-outline"><g id="mobile_iconos_blanco_ruleta" data-name="mobile/iconos/blanco/ruleta"><g id="Group-49"><path id="Stroke-35" class="cls-2" d="M49.14,46A3.14,3.14,0,1,1,46,42.86,3.15,3.15,0,0,1,49.14,46Zm-2,0A1.16,1.16,0,1,0,46,47.16,1.16,1.16,0,0,0,47.16,46Z"/><path class="cls-2" d="M46,10A36,36,0,1,0,82,46,36,36,0,0,0,46,10ZM34.94,14.43a4.87,4.87,0,0,1,3.41,1.4h0a4.84,4.84,0,0,1,1.13,1.77h0a4.91,4.91,0,0,1,.31,1.68,4.84,4.84,0,0,1-9.26,2h0a2.49,2.49,0,0,1-.11-.29,4,4,0,0,1-.21-.67l0-.16a5,5,0,0,1-.09-.87s0,0,0-.06h0A4.85,4.85,0,0,1,34.94,14.43ZM33.65,26a23.12,23.12,0,0,0-4.6,3.7l-4.17-3.79a29.74,29.74,0,0,1,4-3.51A6.83,6.83,0,0,0,33.65,26ZM66.82,45.69A21.13,21.13,0,1,1,45.69,24.57,21.13,21.13,0,0,1,66.82,45.69ZM23.57,27.36l4.18,3.8a23,23,0,0,0-5.14,14.1H16.89v-.09A28.86,28.86,0,0,1,23.57,27.36Zm-.92,19.87a23,23,0,0,0,5.87,13.91l-4.25,4a28.85,28.85,0,0,1-7.35-17.92ZM29.9,62.55A23,23,0,0,0,45,68.77l0,6a28.89,28.89,0,0,1-19.38-8.2ZM47,74.78l0-6a23,23,0,0,0,14.91-6.57l4.5,4.1A28.89,28.89,0,0,1,47,74.78ZM67.7,64.84l-4.5-4.09a23,23,0,0,0,5.54-13.52h6A28.85,28.85,0,0,1,67.7,64.84Zm1.08-19.58A23,23,0,0,0,63.44,30.9l4.27-4a28.8,28.8,0,0,1,7.08,18.39ZM62.11,29.44a23,23,0,0,0-15.4-6.82l0-5.71a28.84,28.84,0,0,1,19.69,8.51ZM44.71,16.92l0,5.7a23.21,23.21,0,0,0-4.2.56,6.81,6.81,0,0,0,1.22-3.9,7,7,0,0,0-.31-2.05A29.25,29.25,0,0,1,44.71,16.92ZM46,80A34,34,0,0,1,28.61,16.75a6.87,6.87,0,0,0-.49,2.53,7.23,7.23,0,0,0,.1,1.15,30.92,30.92,0,0,0-13.3,24.7c0,.24,0,.48,0,.72A31,31,0,1,0,40.53,15.38,6.9,6.9,0,0,0,37.64,13,34,34,0,1,1,46,80Z"/><path class="cls-2" d="M59.51,42.86a3.14,3.14,0,0,0-3,2.15H53.67A7.73,7.73,0,0,0,47,38.33V35.45a3.15,3.15,0,1,0-2,0v2.88A7.73,7.73,0,0,0,38.33,45H35.5a3.13,3.13,0,1,0-.1,2h2.93A7.73,7.73,0,0,0,45,53.67v2.88a3.14,3.14,0,1,0,2,0V53.67A7.73,7.73,0,0,0,53.67,47h2.88a3.13,3.13,0,1,0,3-4.13ZM32.49,47a1.17,1.17,0,1,1,1.16-1.16A1.16,1.16,0,0,1,32.49,47ZM46,31.32a1.17,1.17,0,1,1-1.16,1.17A1.16,1.16,0,0,1,46,31.32Zm0,29.36a1.17,1.17,0,1,1,1.16-1.17A1.16,1.16,0,0,1,46,60.68Zm0-8.91A5.77,5.77,0,1,1,51.77,46,5.77,5.77,0,0,1,46,51.77Zm13.51-4.61A1.16,1.16,0,1,1,60.68,46,1.16,1.16,0,0,1,59.51,47.16Z"/></g></g></g></g></g></svg>