<svg xmlns="http://www.w3.org/2000/svg" width="16" height="18" viewBox="0 0 16 18">
    <g fill="#FFF" fill-rule="nonzero">
        <path d="M15.26 2.483h-.952L13.412.356A.567.567 0 0 0 12.893 0h-9.95a.567.567 0 0 0-.52.356l-.895 2.127H.576c-.313 0-.568.269-.568.6 0 .33.255.598.568.598h.795l1.005 13.731c.023.312.27.553.567.553h9.95c.297 0 .543-.24.566-.553l1.006-13.73h.794c.314 0 .568-.269.568-.6 0-.33-.254-.599-.568-.599zM3.311 1.198h9.212l.541 1.285H2.77l.542-1.285zm9.056 15.57h-8.9L2.51 3.68h10.816l-.958 13.086z"/>
        <path d="M7.918 5.707c-.314 0-.568.268-.568.6v7.835c0 .33.254.599.568.599.313 0 .568-.268.568-.599V6.306c0-.33-.255-.599-.568-.599zM5.452 5.707c-.314 0-.568.268-.568.6v7.835c0 .33.254.599.568.599.313 0 .568-.268.568-.599V6.306c0-.33-.255-.599-.568-.599zM10.384 5.707c-.314 0-.568.268-.568.6v7.835c0 .33.254.599.568.599.313 0 .568-.268.568-.599V6.306c0-.33-.255-.599-.568-.599z"/>
    </g>
</svg>
